<svg width="137" height="32" viewBox="0 0 137 32" fill="none" xmlns="http://www.w3.org/2000/svg">
<path d="M55.1343 21.8197C54.9896 21.5391 54.8862 21.1876 54.8212 20.7681C54.062 21.613 53.0754 22.0383 51.8614 22.0383C50.7123 22.0383 49.7582 21.7045 49.002 21.0399C48.2458 20.3753 47.8677 19.5364 47.8677 18.5232C47.8677 17.2796 48.3285 16.3255 49.2501 15.6608C50.1717 14.9962 51.5039 14.6594 53.2468 14.6506H54.6883V13.9771C54.6883 13.4336 54.5494 13.0023 54.2718 12.6744C53.9941 12.3495 53.554 12.187 52.9543 12.187C52.4256 12.187 52.012 12.314 51.7137 12.5681C51.4124 12.8221 51.2647 13.1677 51.2647 13.6078H48.1306C48.1306 12.9284 48.3403 12.2993 48.7598 11.7203C49.1792 11.1413 49.773 10.6894 50.538 10.3585C51.3031 10.0307 52.1656 9.86523 53.1197 9.86523C54.5672 9.86523 55.7133 10.2286 56.564 10.9552C57.4147 11.6819 57.8371 12.7039 57.8371 14.0184V19.1051C57.8431 20.2187 57.9996 21.0606 58.3039 21.6336V21.8168H55.1373L55.1343 21.8197ZM52.5408 19.6397C53.0045 19.6397 53.4299 19.5364 53.8198 19.3296C54.2097 19.1228 54.4992 18.8481 54.6883 18.4995V16.482H53.5156C51.947 16.482 51.1111 17.0255 51.0106 18.1096L50.9988 18.2928C50.9988 18.6827 51.1347 19.0047 51.4124 19.2587C51.6871 19.5127 52.0622 19.6397 52.5408 19.6397Z" fill="white"/>
<path d="M65.7091 18.5761C65.7091 18.1921 65.5201 17.8908 65.139 17.6692C64.758 17.4477 64.1495 17.2527 63.3106 17.0784C60.5191 16.4936 59.1249 15.3061 59.1249 13.5219C59.1249 12.4821 59.5561 11.6107 60.4216 10.9136C61.2842 10.2165 62.4155 9.86792 63.8098 9.86792C65.2985 9.86792 66.4919 10.2194 67.384 10.9195C68.2761 11.6196 68.7221 12.5324 68.7221 13.6519H65.588C65.588 13.2029 65.4433 12.8337 65.1538 12.5412C64.8643 12.2488 64.4124 12.1011 63.798 12.1011C63.2692 12.1011 62.8616 12.2192 62.5721 12.4585C62.2826 12.6978 62.1378 13.002 62.1378 13.3683C62.1378 13.7169 62.3033 13.9945 62.6312 14.2102C62.959 14.4229 63.5144 14.609 64.2972 14.7626C65.077 14.9191 65.7357 15.0934 66.2704 15.2884C67.9275 15.8969 68.7546 16.9485 68.7546 18.4461C68.7546 19.5154 68.2968 20.3809 67.3781 21.0426C66.4594 21.7043 65.2749 22.0351 63.8216 22.0351C62.8379 22.0351 61.9636 21.8608 61.2015 21.5093C60.4393 21.1578 59.8397 20.6763 59.4055 20.0678C58.9713 19.4563 58.7556 18.7976 58.7556 18.0887H61.7273C61.7568 18.647 61.9636 19.0723 62.3446 19.3677C62.7286 19.6631 63.2397 19.8138 63.8836 19.8138C64.4833 19.8138 64.9382 19.6986 65.2454 19.4711C65.5526 19.2437 65.7062 18.9453 65.7062 18.5761H65.7091Z" fill="white"/>
<path d="M76.2431 18.5761C76.2431 18.1921 76.054 17.8908 75.673 17.6692C75.2919 17.4477 74.6834 17.2527 73.8445 17.0784C71.053 16.4936 69.6588 15.3061 69.6588 13.5219C69.6588 12.4821 70.0901 11.6107 70.9556 10.9136C71.8181 10.2165 72.9495 9.86792 74.3437 9.86792C75.8325 9.86792 77.0259 10.2194 77.9179 10.9195C78.81 11.6196 79.2561 12.5324 79.2561 13.6519H76.122C76.122 13.2029 75.9772 12.8337 75.6877 12.5412C75.3983 12.2488 74.9463 12.1011 74.3319 12.1011C73.8031 12.1011 73.3955 12.2192 73.106 12.4585C72.8165 12.6978 72.6718 13.002 72.6718 13.3683C72.6718 13.7169 72.8372 13.9945 73.1651 14.2102C73.493 14.4229 74.0483 14.609 74.8311 14.7626C75.6109 14.9191 76.2697 15.0934 76.8043 15.2884C78.4615 15.8969 79.2886 16.9485 79.2886 18.4461C79.2886 19.5154 78.8307 20.3809 77.912 21.0426C76.9934 21.7043 75.8088 22.0351 74.3555 22.0351C73.3719 22.0351 72.4975 21.8608 71.7354 21.5093C70.9733 21.1578 70.3736 20.6763 69.9394 20.0678C69.5052 19.4563 69.2896 18.7976 69.2896 18.0887H72.2612C72.2907 18.647 72.4975 19.0723 72.8786 19.3677C73.2626 19.6631 73.7736 19.8138 74.4176 19.8138C75.0172 19.8138 75.4721 19.6986 75.7793 19.4711C76.0865 19.2437 76.2401 18.9453 76.2401 18.5761H76.2431Z" fill="white"/>
<path d="M85.8222 22.0351C84.1001 22.0351 82.6999 21.5064 81.6188 20.4518C80.5376 19.3973 79.9971 17.9882 79.9971 16.2336V15.9294C79.9971 14.7507 80.2245 13.6962 80.6794 12.7687C81.1343 11.8382 81.7812 11.1233 82.6142 10.6212C83.4502 10.119 84.4014 9.86792 85.4736 9.86792C87.0776 9.86792 88.3419 10.373 89.2635 11.3862C90.1851 12.3994 90.6459 13.835 90.6459 15.693V16.9721H83.1725C83.273 17.7372 83.5802 18.3545 84.0882 18.8153C84.5993 19.2791 85.2432 19.5095 86.0231 19.5095C87.2312 19.5095 88.1735 19.0723 88.8529 18.198L90.3919 19.9231C89.9222 20.5877 89.2842 21.1076 88.4837 21.4798C87.6832 21.852 86.7911 22.0381 85.8163 22.0381L85.8222 22.0351ZM85.4648 12.3935C84.8415 12.3935 84.3393 12.6032 83.9524 13.0257C83.5654 13.4481 83.3173 14.0507 83.208 14.8335H87.568V14.5824C87.5532 13.8852 87.3641 13.3447 87.0038 12.9636C86.6434 12.5826 86.1294 12.3906 85.4648 12.3906V12.3935Z" fill="white"/>
<path d="M94.4777 10.0807L94.5752 11.3922C95.4053 10.3731 96.5307 9.86206 97.9486 9.86206C99.461 9.86206 100.498 10.4588 101.062 11.6521C101.886 10.4588 103.062 9.86206 104.586 9.86206C105.859 9.86206 106.804 10.2313 107.428 10.9727C108.048 11.7142 108.361 12.8307 108.361 14.3195V21.8136H105.215V14.3284C105.215 13.6638 105.085 13.1764 104.825 12.8691C104.565 12.5619 104.105 12.4083 103.449 12.4083C102.509 12.4083 101.857 12.8573 101.496 13.7524L101.508 21.8107H98.3739V14.3372C98.3739 13.6578 98.241 13.1645 97.9722 12.8632C97.7034 12.559 97.2485 12.4083 96.6045 12.4083C95.7154 12.4083 95.0715 12.7776 94.6727 13.5161V21.8136H91.5386V10.0807H94.4777Z" fill="white"/>
<path d="M120.457 16.0596C120.457 17.9383 120.055 19.4064 119.252 20.458C118.448 21.5096 117.329 22.0354 115.89 22.0354C114.617 22.0354 113.601 21.548 112.842 20.5703L112.7 21.8168H109.879V5.15674H113.013V11.1355C113.737 10.2906 114.688 9.86528 115.867 9.86528C117.299 9.86528 118.422 10.3911 119.234 11.4427C120.047 12.4943 120.454 13.9742 120.454 15.8854V16.0596H120.457ZM117.323 15.8322C117.323 14.6477 117.134 13.7792 116.759 13.2357C116.384 12.6892 115.822 12.4175 115.078 12.4175C114.08 12.4175 113.394 12.8251 113.016 13.6433V18.2751C113.4 19.0992 114.094 19.5128 115.099 19.5128C116.103 19.5128 116.777 19.0136 117.096 18.0151C117.246 17.5366 117.323 16.8099 117.323 15.8351V15.8322Z" fill="white"/>
<path d="M124.809 21.8198H121.663V5.15674H124.809V21.8168V21.8198Z" fill="white"/>
<path d="M131.903 22.0351C130.181 22.0351 128.781 21.5064 127.7 20.4518C126.619 19.3973 126.078 17.9882 126.078 16.2336V15.9294C126.078 14.7507 126.306 13.6962 126.761 12.7687C127.216 11.8382 127.863 11.1233 128.696 10.6212C129.531 10.119 130.483 9.86792 131.555 9.86792C133.159 9.86792 134.423 10.373 135.345 11.3862C136.266 12.3994 136.727 13.835 136.727 15.693V16.9721H129.254C129.354 17.7372 129.661 18.3545 130.17 18.8153C130.681 19.2791 131.325 19.5095 132.104 19.5095C133.313 19.5095 134.255 19.0723 134.934 18.198L136.473 19.9231C136.004 20.5877 135.365 21.1076 134.565 21.4798C133.764 21.852 132.872 22.0381 131.898 22.0381L131.903 22.0351ZM131.546 12.3935C130.923 12.3935 130.421 12.6032 130.034 13.0257C129.647 13.4481 129.399 14.0507 129.289 14.8335H133.649V14.5824C133.634 13.8852 133.445 13.3447 133.085 12.9636C132.725 12.5826 132.211 12.3906 131.546 12.3906V12.3935Z" fill="white"/>
<path opacity="0.4" d="M16.0035 0C7.16612 0 0 7.16261 0 16C0 24.8374 7.16612 32 16.0035 32C24.8409 32 32.0035 24.8374 32.0035 16C32.0035 7.16261 24.8409 0 16.0035 0ZM15.9895 28.4222L3.59886 16.0281L15.9895 3.63046L28.3766 16.0281L15.9895 28.4222Z" fill="#77D303"/>
<path d="M28.3768 16.028L15.9897 28.4221V3.63037L28.3768 16.028Z" fill="#77D303"/>
<path opacity="0.6" d="M15.9892 3.63037V28.4221L3.59863 16.028L15.9892 3.63037Z" fill="#77D303"/>
</svg>
