<svg width="496" height="496" viewBox="0 0 496 496" fill="none" xmlns="http://www.w3.org/2000/svg" ><path id="svg-astronauts-sattelite-static" d="M495.729 261.46L409.819 97.274C409.353 96.3799 408.366 95.884 407.371 96.0446L362.894 103.211C361.315 103.463 360.446 105.202 361.183 106.627L403.944 189.153L391.734 191.947L347.966 107.255C347.5 106.354 346.513 105.851 345.512 106.012L294.853 114.17C293.274 114.422 292.405 116.147 293.135 117.572L337.481 204.352L315.649 209.346L300.144 179.136C287.636 150.317 219.372 174.869 235.42 211.372L242.783 226.012L227.34 229.546L179.817 134.371C179.358 133.449 178.357 132.939 177.349 133.099L107.959 144.275C106.402 144.527 105.526 146.224 106.228 147.649L154.662 246.17L136 250.438L86.5373 149.416C86.0854 148.487 85.0772 147.963 84.0621 148.131L3.01226 161.178C1.46177 161.43 0.585704 163.113 1.27404 164.531L112.875 396.666C113.396 397.749 114.634 398.258 115.76 397.867L192.103 371.038C193.431 370.57 194.057 369.041 193.431 367.77L145.122 269.101L163.443 264.065L211.585 361.993C212.113 363.062 213.344 363.565 214.464 363.173L279.647 340.263C280.982 339.795 281.608 338.252 280.968 336.98L234.773 244.466L249.951 240.296L265.762 271.735C268.411 277.644 273.195 281.185 279.035 282.82L283.13 290.545L283.158 290.531C287.219 297.418 301.785 297.425 316.282 290.412C331.175 283.204 340.346 271.323 336.772 263.863C336.48 263.255 336.104 262.696 335.659 262.179L332.183 255.195C333.685 250.138 333.511 244.731 330.98 239.248L321.434 220.654L342.793 214.787L386.603 300.512C387.138 301.56 388.362 302.049 389.468 301.658L436.803 285.02C438.152 284.545 438.771 282.98 438.11 281.709L395.976 200.175L407.941 196.885L450.076 278.21C450.611 279.25 451.828 279.732 452.934 279.348L494.415 264.771C495.784 264.303 496.396 262.731 495.729 261.46ZM287.378 244.326C287.17 244.445 286.968 244.557 286.767 244.675C283.777 246.429 279.939 245.22 278.458 242.077L254.137 190.487C253.031 188.14 253.504 185.269 255.465 183.579C255.506 183.544 255.548 183.509 255.59 183.474C258.475 181.05 262.89 182.091 264.573 185.472L289.923 236.405C291.355 239.297 290.201 242.762 287.378 244.326Z" fill="url(#astronauts0)"></path><path class="styles_float__3z0wh" d="M215.506 12.3238C215.458 11.9187 211.474 9.89311 211.001 9.68356C209.777 9.12477 211.62 10.6684 210.431 10.0398C210.361 10.0188 210.236 9.96994 210.048 9.89311C208.282 9.69753 206.349 9.04794 204.674 8.76855C204.257 8.6987 203.853 8.61488 203.45 8.51709C202.581 8.95714 201.663 9.32035 200.725 9.57879C198.736 10.1306 196.727 10.5148 194.71 10.9478C194.043 11.0945 193.368 11.2412 192.701 11.4158C192.659 11.4717 191.707 11.8559 191.255 12.0724C189.843 12.7359 188.376 13.4065 187.034 14.2237C187.333 14.091 186.27 14.9571 185.706 15.4181C185.56 15.5858 185.338 15.8442 185.157 16.0817C182.571 19.4693 180.262 22.9408 178.051 26.5869C177.843 26.9571 177.641 27.3343 177.432 27.7045C177.801 26.9292 177.801 26.9222 177.432 27.6905C176.967 28.6335 176.535 29.5974 176.118 30.5683C175.305 32.4751 174.616 34.4239 173.991 36.4076C173.33 38.5031 172.113 40.2004 170.57 41.4856C172.475 46.8081 176 51.6276 181.006 55.1061C193.647 63.886 210.883 60.8476 219.518 48.3098C227.361 36.9175 225.4 21.6137 215.506 12.3238Z" fill="url(#astronauts1)"></path><path class="styles_float__3z0wh" d="M192.805 26.5166C197.297 19.3222 206.433 13.881 214.616 12.3793C214.839 12.3374 215.061 12.3094 215.277 12.2745L215.347 12.1348C215.214 12.0231 215.006 11.8764 214.749 11.7157L204.757 8.78906L201.768 9.22911C201.42 9.35483 201.072 9.48056 200.718 9.57835C198.729 10.1302 196.72 10.5143 194.703 10.9474C194.036 11.0941 193.361 11.2407 192.694 11.4154C192.652 11.4712 191.7 11.8554 191.248 12.0719C189.836 12.7355 188.369 13.4061 187.027 14.2233C187.326 14.0906 186.263 14.9567 185.699 15.4177C185.553 15.5853 185.331 15.8438 185.15 16.0813C182.564 19.4689 180.255 22.9404 178.044 26.5865C177.836 26.9567 177.634 27.3339 177.425 27.7041C177.794 26.9287 177.794 26.9218 177.425 27.6901C176.96 28.633 176.529 29.597 176.111 30.5679C175.298 32.4747 174.61 34.4235 173.984 36.4072C173.323 38.5027 172.106 40.2 170.563 41.4852C172.468 46.8076 175.993 51.6272 180.999 55.1057C183.683 56.9706 186.582 58.2977 189.558 59.115C185.421 48.7774 186.527 36.5678 192.805 26.5166Z" fill="#121214"></path><path class="styles_float__3z0wh" d="M201.761 54.163C189.982 44.5518 194.439 35.5972 194.439 35.5972C196.449 43.8743 205.494 46.8918 205.494 46.8918L206.697 44.5448L213.08 44.1886C214.005 44.1397 214.742 43.3854 214.776 42.4564L215.214 30.9523C215.347 27.5507 214.192 24.2259 211.988 21.6415L211.641 21.2364C208.421 17.4576 203.395 15.7672 198.562 16.8219C194.599 17.6881 191.234 20.3074 189.412 23.9535L176.313 50.1118L197.568 64.0256L199.216 59.1502L201.761 54.163Z" fill="#8157E4"></path><path class="styles_float__3z0wh" d="M194.627 27.5717C196.449 23.9325 199.814 21.3132 203.777 20.4401C206.391 19.8674 209.061 20.1048 211.467 21.0408C208.241 17.4017 203.311 15.7812 198.562 16.822C194.599 17.6881 191.234 20.3074 189.412 23.9535L176.313 50.1118L181.604 53.5763L194.627 27.5717Z" fill="#D7D7E1"></path><path class="styles_float__3z0wh" d="M203.162 33.4899C204.27 31.8814 204.52 30.1274 203.721 29.5722C202.922 29.0169 201.376 29.8707 200.269 31.4792C199.161 33.0877 198.911 34.8417 199.71 35.3969C200.509 35.9522 202.055 35.0984 203.162 33.4899Z" fill="#121214"></path><path class="styles_float__3z0wh" d="M208.477 36.9428C209.401 35.2217 209.458 33.4506 208.603 32.987C207.748 32.5234 206.305 33.5429 205.381 35.264C204.456 36.9851 204.399 38.7562 205.254 39.2198C206.109 39.6834 207.552 38.6639 208.477 36.9428Z" fill="#121214"></path><path class="styles_float__3z0wh" d="M202.817 26.517C204.702 25.7277 208.296 24.9105 211.203 28.2283C211.453 28.5077 211.168 28.9407 210.813 28.808C209.291 28.2283 206.461 27.3552 202.95 27.2015C202.567 27.1875 202.463 26.6637 202.817 26.517Z" fill="#121214"></path><path class="styles_float__3z0wh" d="M183.064 23.1922C186.36 16.6124 192.43 11.8837 199.591 10.3191C205.056 9.12467 210.653 9.87205 215.506 12.2748C209.722 6.86856 201.628 4.57753 193.799 6.29581C186.638 7.8674 180.568 12.5961 177.272 19.1689L153.619 66.4075L159.501 70.2561L183.064 23.1922Z" fill="white"></path><path class="styles_float__3z0wh" d="M263.808 151.364C265.727 146.517 265.101 141.236 265.748 136.151C266.409 130.927 268.112 126.142 266.631 120.84C265.672 117.404 262.675 114.91 260.7 112.04C259.275 109.972 258.204 107.925 257.808 105.711C257.724 105.718 257.648 105.718 257.564 105.725C257.655 106.417 257.731 107.115 257.766 107.828C258.079 113.793 255.792 118.92 252.398 123.69C250.243 126.722 246.454 125.73 244.841 123.39C240.043 127.399 235.114 127.658 232.027 122.824C221.305 106.047 226.353 83.1711 223.064 79.546C217.857 72.9383 187.194 36.7428 137.905 33.7532L137.891 33.8021C128.943 26.4471 97.0362 2.23756 73.9248 10.3679C46.7946 19.8953 40.9333 65.7299 49.7079 77.8486C58.4824 89.9674 70.4761 97.4412 70.4761 97.4412C70.4761 97.4412 80.3492 56.9779 97.6828 49.2317C112.958 42.4005 134.22 57.7881 139.046 61.532C139.164 61.6228 139.059 61.8114 138.92 61.7625C137.794 61.3644 135.249 60.0512 131.828 59.1222C130.834 58.8498 129.798 59.4016 129.485 60.3935L106.708 132.526C106.708 132.526 103.69 144.931 97.2865 152.74C97.7593 153.921 97.6341 155.304 96.5147 156.631C92.9896 160.815 88.4424 163.539 82.8175 162.833C77.8045 162.205 73.3755 159.46 69.0647 157.008C66.6034 155.611 62.0631 152.363 59.0595 153.432C57.0501 154.144 56.2227 157.35 55.5205 159.124C54.1786 162.498 53.0522 165.949 51.6755 169.308C48.658 176.691 44.7922 184.039 42.7967 191.8C41.4826 196.913 44.0621 200 47.5942 203.422C49.1447 204.924 51.9189 208.375 54.1368 208.794C55.0129 208.961 56.4104 207.264 57.2795 206.16C60.3388 202.263 62.2926 196.668 66.9371 194.328C71.5677 191.995 78.1521 193.28 83.1373 193.225C89.9442 193.141 96.6816 192.463 102.647 188.915C105.665 187.12 108.237 189.39 108.731 192.135C111.832 190.193 115.009 187.797 118.229 184.843C128.422 175.49 141.124 148.102 152.715 118.528C152.917 118.019 152.694 117.439 152.207 117.187C146.339 114.121 142.077 110.468 139.504 107.904C139.108 107.506 139.616 106.878 140.082 107.192C143.502 109.483 149.329 112.962 156.998 115.972L161.197 117.467C161.197 117.467 161.204 117.481 161.218 117.509C166.669 119.346 172.871 120.861 179.671 121.588C180.443 121.672 180.429 122.81 179.65 122.859C174.165 123.229 169.186 122.754 164.716 121.762C163.895 121.581 163.207 122.384 163.52 123.173C168.957 136.899 181.848 171.53 178.58 183.564C181.229 184.452 183.148 187.462 180.937 190.27C175.938 196.626 169.089 198.861 161.253 199.141C158.778 199.231 156.184 199.064 153.577 198.966C153.542 199.127 153.521 199.287 153.473 199.455C152.965 201.194 152.152 202.78 151.185 204.275C151.06 205.176 150.914 206.782 150.921 207.774C150.942 211.63 151.86 215.695 152.993 219.425C155.148 226.521 158.528 233.618 163.235 239.366C164.18 240.526 165.439 241.902 166.273 242.621C166.857 243.124 167.469 243.557 168.095 244.011C168.915 244.598 168.894 244.556 169.249 244.717C170.785 245.408 170.48 245.297 172.141 245.366C171.161 245.325 173.115 244.975 172.239 245.332C172.864 245.08 173.372 244.801 173.337 244.829C176.8 242.447 175.938 238.312 176.32 234.212C176.897 227.96 180.596 224.23 186.13 221.709C192.513 218.796 198.055 215.436 203.645 211.141C206.384 209.038 210.167 206.761 210.765 203.052C211.251 200.056 210.639 197.283 211.724 194.307C212.767 191.457 215.548 190.892 217.717 191.765C219.991 161.227 195.579 117.299 195.579 117.299C195.579 117.299 206.468 114.847 221.291 85.8114C221.375 85.6507 221.611 85.7485 221.555 85.9162C219.873 90.6798 214.985 103.274 207.678 111.551C207.358 111.914 207.156 112.368 207.121 112.857C204.903 146.775 239.091 169.56 257.161 160.961C260.047 159.585 262.633 157.93 264.962 156.086C263.718 154.961 263.057 153.257 263.808 151.364Z" fill="white"></path><path class="styles_float__3z0wh" d="M70.4761 97.4483C70.4761 97.4483 78.0409 72.0793 89.6174 57.8371L59.5045 18.3657C44.2916 35.3389 42.6715 68.1258 49.7079 77.8488C58.4894 89.9745 70.4761 97.4483 70.4761 97.4483Z" fill="url(#astronauts2)"></path><path class="styles_float__3z0wh" d="M70.4761 97.4481C70.4761 97.4481 88.8665 62.0419 81.1558 55.8253C73.445 49.6088 66.9927 61.4691 60.8951 75.2991C60.8951 75.2991 58.4615 49.0011 47.1075 48.6798C35.7604 48.3655 47.0936 76.8847 47.0936 76.8847C47.0936 76.8847 27.8341 66.0861 23.0296 73.0709C18.2252 80.0558 31.7694 87.7461 38.5832 89.0453C35.8716 91.2875 35.0303 105.991 50.424 104.999C49.3602 102.631 48.9013 100.396 48.804 98.391C48.7484 97.3224 50.2919 97.1408 50.5213 98.1885C51.3905 102.037 53.4694 104.126 53.4694 104.126L54.0326 104.88C57.2031 106.612 75.6421 116.181 82.0249 108.051C89.0125 99.1384 70.4761 97.4481 70.4761 97.4481Z" fill="url(#astronauts3)"></path><path class="styles_float__3z0wh" d="M46.732 83.9743C50.4657 83.611 55.5691 83.6949 60.756 85.5668C61.5625 85.8602 62.1049 84.7496 61.3748 84.3025C58.1348 82.3049 53.08 80.5796 46.4817 82.5912C45.6613 82.8427 45.8838 84.0581 46.732 83.9743Z" fill="#121214"></path><path class="styles_float__3z0wh" d="M83.5962 158.622C71.387 155.765 61.1384 150.854 57.9888 149.255C57.3978 148.954 56.6816 149.129 56.2922 149.66C53.6988 153.187 44.5766 166.675 39.7235 187.497C34.0291 211.937 53.9491 224.056 69.2663 196.843C69.2663 196.843 88.2269 207.599 110.163 193.427L96.6468 149.618C93.1286 153.893 89.2003 159.935 83.5962 158.622Z" fill="#464650"></path><path class="styles_float__3z0wh" d="M148.585 196.759C148.063 196.752 147.611 197.108 147.486 197.618C146.402 202.151 142.487 223.329 158.465 242.07C176.473 263.185 187.153 243.942 183.099 229.93C183.099 229.93 213.08 224.95 218.239 197.562C218.677 195.222 218.927 192.771 219.004 190.235L177.606 180.079C178.545 182.454 178.503 184.081 178.01 185.094C172.44 196.473 152.944 196.822 148.585 196.759Z" fill="#464650"></path><path class="styles_float__3z0wh" d="M287.337 109.714C315.065 111.202 313.556 91.9582 302.703 95.29C293.455 98.1259 287.045 97.5112 287.045 97.5112C312.791 85.3715 305.359 68.1888 293.087 77.6952C283.645 85.0083 276.754 90.3657 276.754 90.3657C291.884 63.928 278.103 52.2074 272.172 68.6218C268.773 78.0235 265.352 84.3028 263.44 87.46C263.155 87.928 263.196 88.5147 263.516 88.9548C265.984 92.3424 265.776 96.8127 265.776 96.8127C264.497 92.51 260.679 88.5566 260.61 88.4868C257.822 85.623 251.161 79.4903 247.65 82.1375C243.13 85.5462 254.039 99.6835 254.039 99.6835C254.039 99.6835 250.709 106.103 255.34 110.412C255.34 110.412 247.469 121.288 239.8 122.692C239.8 122.692 247.754 149.024 265.484 159.425C265.484 159.425 274.849 144.345 279.647 124.033C287.114 122.657 287.337 109.714 287.337 109.714ZM273.417 115.993C272.972 116.28 272.444 115.763 272.715 115.309C274.224 112.808 276.588 107.905 276.553 101.709C276.553 101.185 277.227 100.997 277.484 101.451C279.118 104.342 281.392 110.782 273.417 115.993Z" fill="url(#astronauts4)"></path><path class="styles_float__3z0wh" d="M123.749 78.5684C123.84 79.0085 194.307 110.419 202.4 114.031C202.852 114.233 203.381 114.121 203.714 113.751L209.249 107.632C209.777 107.046 209.583 106.117 208.859 105.795L126.405 69.2786C125.703 68.9643 124.896 69.4253 124.799 70.1936L123.749 78.5684Z" fill="#D7D7E1"></path><path class="styles_float__3z0wh" d="M178.496 65.737C181.998 65.737 184.837 62.8849 184.837 59.3668C184.837 55.8486 181.998 52.9966 178.496 52.9966C174.994 52.9966 172.155 55.8486 172.155 59.3668C172.155 62.8849 174.994 65.737 178.496 65.737Z" fill="#D7D7E1"></path><path class="styles_float__3z0wh" d="M184.705 96.3793L189.934 83.2967C190.344 82.2629 191.373 81.6133 192.485 81.6832L194.119 81.788C194.481 81.8089 194.808 81.5854 194.919 81.2432L197.45 73.2175C197.554 72.8823 197.429 72.5121 197.144 72.3165L194.703 70.6192C193.688 69.9137 193.264 68.6285 193.654 67.455L197.137 57.0266C197.172 56.9149 197.339 56.9638 197.311 57.0755L195.121 68.2024C195.016 68.7403 195.239 69.2851 195.684 69.5924L198.43 71.4993C199.119 71.9742 199.417 72.8474 199.167 73.6436L196.525 82.1582C196.254 83.0243 195.447 83.611 194.544 83.5971L191.846 83.5482C191.331 83.5412 190.865 83.8555 190.685 84.3374L185.866 97.1826L184.705 96.3793Z" fill="#D7D7E1"></path><path class="styles_float__3z0wh" d="M193.667 74.1047L192.145 78.8125C191.964 79.3643 192.277 79.958 192.833 80.1187L192.979 80.1606C193.521 80.3212 194.092 80.0069 194.245 79.4621L195.621 74.7124C195.746 74.2863 195.586 73.8323 195.218 73.5808C194.662 73.1827 193.883 73.4481 193.667 74.1047Z" fill="#8157E4"></path><path class="styles_float__3z0wh" d="M459.852 125.737C460.213 125.583 463.808 127.972 464.211 128.265C465.261 129.026 463.092 128.216 464.191 128.915C464.239 128.964 464.343 129.047 464.496 129.166C465.505 130.563 466.972 131.876 468.008 133.155C468.265 133.469 468.529 133.776 468.8 134.063C468.849 135.006 468.981 135.948 469.217 136.863C469.711 138.798 470.351 140.677 470.949 142.577C471.15 143.206 471.345 143.848 471.519 144.491C471.491 144.554 471.623 145.539 471.665 146.021C471.79 147.529 471.929 149.08 471.887 150.603C471.853 150.288 471.637 151.602 471.526 152.293C471.456 152.496 471.352 152.81 471.241 153.075C469.649 156.875 467.862 160.479 465.88 164.084C465.665 164.433 465.456 164.789 465.24 165.138C465.713 164.454 465.72 164.454 465.254 165.131C464.691 165.976 464.093 166.801 463.481 167.611C462.278 169.21 460.985 170.719 459.629 172.193C458.197 173.751 457.363 175.588 457.036 177.501C451.682 178.444 445.981 177.781 440.683 175.231C427.312 168.798 421.597 152.831 427.924 139.567C433.674 127.525 447.371 121.86 459.852 125.737Z" fill="url(#astronauts5)"></path><path class="styles_float__3z0wh" d="M458.878 151.637C462.73 144.407 462.897 134.119 460.227 126.519C460.158 126.316 460.074 126.114 459.998 125.911L460.081 125.786C460.241 125.842 460.457 125.946 460.721 126.086L467.938 133.099L469.002 135.823C469.064 136.172 469.127 136.528 469.21 136.871C469.704 138.805 470.344 140.684 470.942 142.584C471.143 143.213 471.338 143.855 471.512 144.498C471.484 144.561 471.616 145.546 471.658 146.028C471.783 147.536 471.922 149.087 471.88 150.61C471.846 150.295 471.63 151.609 471.519 152.3C471.449 152.503 471.345 152.817 471.234 153.082C469.642 156.882 467.855 160.486 465.873 164.091C465.658 164.44 465.449 164.796 465.233 165.145C465.706 164.461 465.713 164.461 465.247 165.138C464.684 165.983 464.086 166.808 463.474 167.618C462.271 169.217 460.978 170.726 459.622 172.2C458.19 173.758 457.356 175.595 457.029 177.508C451.675 178.451 445.974 177.788 440.676 175.238C437.832 173.869 435.343 172.067 433.236 169.958C443.846 168.505 453.504 161.73 458.878 151.637Z" fill="#121214"></path><path class="styles_float__3z0wh" d="M437.102 150.785C437.102 150.785 429.781 151.749 429.502 153.97C429.224 156.191 431.435 156.47 431.435 156.47C431.435 156.47 429.28 159.104 432.791 161.702C436.295 164.3 439.139 164.887 439.139 164.887L451.933 157.707C451.926 157.707 441.886 148.598 437.102 150.785Z" fill="#4D3580"></path><path class="styles_float__3z0wh" d="M464.781 145.909C464.921 141.844 462.779 138.037 459.24 136.067C456.25 134.398 452.649 134.258 449.534 135.676C444.562 137.946 437.63 141.879 436.226 146.615C435.412 149.758 438.993 151.867 438.993 151.867L436.455 154.996C436.455 154.996 441.072 158.356 446.739 157.944C446.739 157.944 444.27 162.771 434.62 159.439L429.669 165.544L449.582 175.127L461.514 156.449C463.523 153.299 464.656 149.653 464.781 145.909Z" fill="#8157E4"></path><path class="styles_float__3z0wh" d="M453.129 151.8C453.94 150.099 453.913 148.39 453.068 147.983C452.223 147.577 450.88 148.626 450.069 150.328C449.258 152.029 449.285 153.738 450.13 154.144C450.975 154.551 452.318 153.502 453.129 151.8Z" fill="#121214"></path><path class="styles_float__3z0wh" d="M447.529 149.313C448.522 147.712 448.682 146.011 447.886 145.513C447.091 145.016 445.641 145.91 444.649 147.512C443.656 149.113 443.496 150.814 444.292 151.312C445.087 151.81 446.537 150.915 447.529 149.313Z" fill="#121214"></path><path class="styles_float__3z0wh" d="M455.715 146.663C454.999 145.197 453.177 142.689 448.998 142.368C448.644 142.34 448.539 142.696 448.859 142.85C450.257 143.513 452.732 144.84 455.159 146.873C455.43 147.096 455.854 146.936 455.715 146.663Z" fill="#121214"></path><path class="styles_float__3z0wh" d="M466.311 158.244C470.219 152.328 471.262 144.952 469.141 138.177C467.521 133.001 464.218 128.649 459.894 125.716C467.166 128 472.951 133.713 475.266 141.124C477.387 147.9 476.344 155.276 472.437 161.192L444.361 203.709L438.34 200.6L466.311 158.244Z" fill="white"></path><path class="styles_float__3z0wh" d="M470.775 193.581C470.796 193.511 470.81 193.469 470.81 193.469C470.782 193.434 470.754 193.399 470.726 193.364C470.671 193.127 470.643 192.994 470.643 192.994L470.476 193.036C453.205 170.74 415.687 159.676 405.807 156.973C405.098 156.777 404.375 156.791 403.693 156.973C403.61 156.847 403.554 156.791 403.554 156.791L403.582 157.001C403.353 157.071 403.137 157.162 402.922 157.266C403.325 156.952 403.554 156.791 403.554 156.791C403.554 156.791 378.294 172.095 359.341 169.252C345.442 167.171 347.507 157.155 349.6 151.965C348.585 151.602 347.59 151.189 346.631 150.721C343.196 149.066 340.213 146.929 337.69 144.435C330.924 145.706 323.575 144.917 317.359 142.165C315.976 144.673 314.655 147.418 313.57 150.323C310.719 157.965 309.468 166.71 312.812 175.106C321.17 196.095 360.759 197.422 383.509 183.026C387.493 173.506 393.195 166.493 397.498 162.128C397.839 161.786 398.367 162.253 398.075 162.638C391.651 171.047 381.868 186.673 383.454 202.291C370.326 207.571 335.395 222.54 311.964 241.085C304.51 246.826 300.679 253.615 298.899 260.167C302.64 260.579 306.263 261.571 309.377 263.22C316.017 266.733 323.026 269.443 329.805 272.663C333.115 274.235 336 276.26 338.461 278.628C336.904 270.204 339.942 264.575 345.379 259.518C349.106 256.053 365.16 248.691 382.494 241.329C381.945 246.756 382.105 251.785 382.862 256.409C374.971 267.732 366.475 281.506 360.37 295.664C353.716 310.542 358.068 323.031 363.158 331.112C363.603 330.931 364.048 330.756 364.493 330.596C372.308 327.83 381.639 328.193 389.287 331.497C389.725 328.2 390.594 324.91 391.936 321.739C393.417 318.239 395.878 314.936 398.847 312.107C396.184 306.819 396.581 301.594 398.5 295.958C398.799 295.078 399.403 293.883 400.259 292.43C400.829 291.466 400.641 290.244 399.835 289.476C392.388 282.365 387.444 270.302 387.444 270.302L387.465 270.316C402.393 298.738 444.757 302.216 460.707 276.072C480.773 243.173 471.992 199.12 470.775 193.581ZM397.867 236.53L395.67 235.832C397.074 235.252 398.472 234.68 399.848 234.121C399.244 234.854 398.576 235.664 397.867 236.53ZM441.837 265.399C435.016 266.279 430.518 262.053 427.542 256.102C433.438 248.824 439.341 241.692 444.298 235.755C447.837 225.851 451.161 212.391 453.045 204.232C453.156 203.758 453.858 203.89 453.803 204.379C447.782 252.4 436.177 260.363 436.177 260.363C436.747 261.997 439.626 263.171 441.955 263.869C442.748 264.107 442.664 265.287 441.837 265.399Z" fill="white"></path><path class="styles_float__3z0wh" d="M441.726 238.961C433.932 233.618 390.337 201.69 383.314 197.59C382.883 197.339 382.661 196.843 382.758 196.354L384.441 188.258C384.601 187.483 385.47 187.099 386.144 187.497L446.933 231.18C447.601 231.571 447.705 232.493 447.142 233.024L443.645 238.563C443.235 239.213 442.365 239.394 441.726 238.961Z" fill="#D7D7E1"></path><path class="styles_float__3z0wh" d="M411.527 172.277C414.416 170.288 415.61 166.992 414.193 164.913C412.776 162.835 409.285 162.762 406.395 164.75C403.506 166.738 402.312 170.035 403.729 172.113C405.146 174.191 408.637 174.265 411.527 172.277Z" fill="#D7D7E1"></path><path class="styles_float__3z0wh" d="M402.108 197.506L411.571 187.099C412.322 186.275 413.511 186.03 414.519 186.484L416.007 187.162C416.334 187.308 416.723 187.218 416.946 186.931L422.118 180.309C422.334 180.03 422.348 179.646 422.146 179.353L420.457 176.901C419.755 175.888 419.803 174.526 420.582 173.569L427.493 165.034C427.563 164.943 427.702 165.041 427.639 165.138L421.701 174.784C421.416 175.245 421.43 175.839 421.743 176.286L423.648 179.038C424.121 179.73 424.1 180.645 423.586 181.308L418.135 188.349C417.578 189.069 416.619 189.334 415.777 188.999L413.267 188.007C412.788 187.818 412.245 187.951 411.905 188.335L402.908 198.666L402.108 197.506Z" fill="#D7D7E1"></path><path class="styles_float__3z0wh" d="M418.288 179.814L415.221 183.683C414.86 184.137 414.943 184.801 415.409 185.15L415.527 185.241C415.979 185.583 416.619 185.485 416.96 185.031L419.908 181.071C420.172 180.715 420.179 180.233 419.928 179.87C419.539 179.304 418.712 179.276 418.288 179.814Z" fill="#8157E4"></path><path class="styles_float__3z0wh" d="M445.508 146.545C445.432 146.51 445.369 146.433 445.348 146.342L444.959 144.756C444.917 144.596 445.014 144.428 445.181 144.386C445.341 144.344 445.508 144.442 445.55 144.61L445.939 146.195C445.981 146.356 445.884 146.524 445.717 146.565C445.64 146.579 445.571 146.572 445.508 146.545Z" fill="#121214"></path><path class="styles_float__3z0wh" d="M453.309 151.294C453.219 151.252 453.156 151.162 453.142 151.057C453.121 150.889 453.24 150.736 453.406 150.715L454.769 150.54C454.936 150.519 455.089 150.638 455.11 150.805C455.131 150.973 455.013 151.127 454.846 151.148L453.483 151.322C453.42 151.329 453.358 151.322 453.309 151.294Z" fill="#121214"></path><path class="styles_float__3z0wh" d="M427.284 203.66C428.418 198.198 425.943 197.297 423.314 198.072C423.314 198.072 423.474 207.564 419.212 217.127L417.391 203.821C415.534 209.744 415.472 221.367 415.472 221.367C415.472 221.367 425.414 212.698 427.284 203.66Z" fill="url(#astronauts6)"></path><path class="styles_float__3z0wh" d="M419.289 221.248C419.289 221.248 423.718 203.765 420.992 191.464C418.934 182.174 417.189 173.031 411.251 174.226C407.796 174.917 408.644 187.881 408.804 197.374C408.804 197.374 402.817 178.801 397.102 176.049C391.387 173.297 391.957 188.482 396.511 196.947C396.511 196.947 385.831 180.037 379.254 182.363C372.676 184.689 384.35 204.435 384.35 204.435C384.35 204.435 374.783 216.309 384.114 227.862C384.114 227.862 376.723 256.472 385.498 272.468L425.331 242.985C425.324 242.978 420.693 229.769 419.289 221.248Z" fill="url(#astronauts7)"></path><path class="styles_float__3z0wh" d="M403.387 225.516C405.515 224.405 409.847 222.589 413.977 223.574C414.408 223.679 414.512 224.237 414.158 224.496C412.802 225.446 409.562 227.059 403.582 226.48C403.075 226.431 402.943 225.746 403.387 225.516Z" fill="#121214"></path><path class="styles_float__3z0wh" d="M356.984 132.414C356.984 132.414 360.398 129.942 364.5 129.103C365.244 128.95 365.884 128.51 366.287 127.86C370.278 121.371 378.753 106.137 374.248 100.305C368.449 92.8101 355.065 120.889 355.065 120.889C355.065 120.889 362.484 93.8578 356.136 90.8055C349.781 87.7461 341.117 115.748 341.117 115.748C341.117 115.748 345.748 91.3014 340.054 90.1279C334.366 88.9615 329.958 108.023 330.702 114.659C330.702 114.659 324.298 124.011 323.325 133.015C323.325 133.015 314.474 142.151 312.367 148.2C311.227 150.568 333.115 166.214 350.685 159.578L351.13 148.808C351.13 148.808 356.845 151.56 363.012 143.541C363.012 143.541 374.06 144.938 377.439 139.497C378.774 137.353 374.846 132.729 369.263 131.248C364.889 130.102 359.049 131.688 356.984 132.414ZM348.599 125.255C343.231 128.293 340.158 132.791 338.753 135.348C338.496 135.816 337.787 135.606 337.815 135.075C338.357 125.527 345.06 124.319 348.362 124.312C348.877 124.305 349.051 124.996 348.599 125.255Z" fill="url(#astronauts8)"></path><path class="styles_float__3z0wh" d="M462.209 150.882C462.209 150.882 461.597 148.465 460.429 146.985C461.319 141.886 459.4 137.401 455.944 134.531C451.307 130.675 450.257 133.364 450.257 133.364C450.257 133.364 441.893 130.249 441.441 133.832C440.884 138.274 447.796 136.891 453.539 141.222C455.777 142.912 457.071 144.861 457.829 146.614C456.598 148.423 453.594 153.271 453.879 156.931C450.66 158.097 444.472 160.654 443.826 163.231C442.943 166.731 446.113 168.253 446.113 168.253C446.113 168.253 445.64 169.692 446.69 170.544L454.31 158.614C454.359 158.719 454.401 158.838 454.463 158.936C457.064 163.315 462.209 150.882 462.209 150.882Z" fill="#4D3580"></path><path class="styles_float__3z0wh" d="M464.782 145.909C464.921 141.844 462.779 138.037 459.24 136.068C458.322 135.558 457.342 135.202 456.334 134.978C458.941 137.094 460.45 140.335 460.339 143.772C460.213 147.516 459.08 151.162 457.064 154.319L445.133 172.997L449.582 175.134L461.514 156.456C463.523 153.299 464.656 149.653 464.782 145.909Z" fill="#D7D7E1"></path><path class="styles_float__3z0wh" d="M300.346 286.361C300.346 286.361 278.089 297.425 291.154 310.626C302.105 321.697 334.561 305.052 344.392 299.939C345.998 299.108 347.055 297.921 345.964 296.468C337.829 285.614 335.757 269.667 347.486 260.447L308.098 241.497C288.609 262.717 300.346 286.361 300.346 286.361Z" fill="#464650"></path><path class="styles_float__3z0wh" d="M371.529 341.066C371.529 341.066 357.345 359.345 375.082 364.745C389.954 369.271 410.472 341.206 416.716 332.027C417.738 330.526 417.94 329.834 416.382 328.912C403.387 321.208 395.364 315.662 399.494 298.814L355.148 303.369C355.315 332.481 371.529 341.066 371.529 341.066Z" fill="#464650"></path><path class="styles_float__3z0wh" d="M371.571 219.732C371.383 219.655 371.23 219.529 371.07 219.411C370.744 219.215 370.382 219.089 370.027 218.957C369.861 218.894 369.742 218.726 369.673 218.566C369.617 218.426 369.631 218.272 369.68 218.125L303.134 171.634C302.814 172.312 302.939 173.115 303.461 173.66L338.308 209.904C338.517 210.121 338.767 210.274 339.052 210.365L369.443 219.99C370.132 220.207 370.876 220.165 371.536 219.865C371.564 219.823 371.571 219.774 371.571 219.732Z" fill="#D7D7E1"></path><path class="styles_float__3z0wh" d="M335.089 186.672L303.036 171.851L339.066 209.317L371.647 219.753L335.089 186.672Z" fill="#F2F2F2"></path><path class="styles_float__3z0wh" d="M331.126 193.748C333.852 197.534 336.299 201.543 337.502 206.097C337.509 206.111 337.502 206.125 337.502 206.139L355.086 211.769L332.322 191.171L327.921 189.138C328.964 190.675 330.027 192.225 331.126 193.748Z" fill="url(#astronauts9)"></path><path class="styles_float__3z0wh" d="M344.941 196.451L334.005 192.086L346.116 202.507L355.051 205.42L344.941 196.451Z" fill="#C2C2C2"></path><path class="styles_float__3z0wh" d="M305.942 135.047L303.035 171.851L339.065 209.317L342.41 169.238C342.493 168.226 342.104 167.227 341.346 166.549L306.352 134.887C306.199 134.747 305.956 134.845 305.942 135.047Z" fill="#D7D7E1"></path><path class="styles_float__3z0wh" d="M321.481 176.62C323.519 176.109 324.565 173.258 323.817 170.253C323.069 167.248 320.811 165.226 318.773 165.738C316.736 166.25 315.69 169.101 316.438 172.106C317.186 175.111 319.444 177.132 321.481 176.62Z" fill="#F2F2F2"></path><path d="M250.327 393.362C253.479 393.362 256.035 390.794 256.035 387.627C256.035 384.46 253.479 381.893 250.327 381.893C247.174 381.893 244.618 384.46 244.618 387.627C244.618 390.794 247.174 393.362 250.327 393.362Z" fill="black"></path><path d="M285.48 5.38733C286.817 5.38733 287.9 4.29906 287.9 2.95661C287.9 1.61415 286.817 0.525879 285.48 0.525879C284.144 0.525879 283.061 1.61415 283.061 2.95661C283.061 4.29906 284.144 5.38733 285.48 5.38733Z" fill="black"></path><path d="M293.546 382.655C294.947 382.655 296.083 381.513 296.083 380.105C296.083 378.697 294.947 377.556 293.546 377.556C292.144 377.556 291.008 378.697 291.008 380.105C291.008 381.513 292.144 382.655 293.546 382.655Z" fill="white"></path><path d="M317.7 25.5112C318.399 25.5112 318.965 24.9421 318.965 24.24C318.965 23.5379 318.399 22.9688 317.7 22.9688C317.001 22.9688 316.435 23.5379 316.435 24.24C316.435 24.9421 317.001 25.5112 317.7 25.5112Z" fill="white"></path><path d="M244.215 32.8384C245.267 32.8384 246.12 31.9816 246.12 30.9246C246.12 29.8676 245.267 29.0107 244.215 29.0107C243.163 29.0107 242.31 29.8676 242.31 30.9246C242.31 31.9816 243.163 32.8384 244.215 32.8384Z" fill="white"></path><path d="M264.204 367.993C264.903 367.993 265.47 367.424 265.47 366.721C265.47 366.019 264.903 365.45 264.204 365.45C263.506 365.45 262.939 366.019 262.939 366.721C262.939 367.424 263.506 367.993 264.204 367.993Z" fill="white"></path><path d="M305.699 5.44269C307.101 5.44269 308.237 4.30125 308.237 2.89322C308.237 1.48519 307.101 0.34375 305.699 0.34375C304.298 0.34375 303.162 1.48519 303.162 2.89322C303.162 4.30125 304.298 5.44269 305.699 5.44269Z" fill="white"></path><path d="M299.087 23.7303C300.489 23.7303 301.625 22.5889 301.625 21.1808C301.625 19.7728 300.489 18.6313 299.087 18.6313C297.685 18.6313 296.549 19.7728 296.549 21.1808C296.549 22.5889 297.685 23.7303 299.087 23.7303Z" fill="white"></path><path d="M328.122 55.6372L321.635 51.0272L328.991 48.0307L333.58 41.5068L336.57 48.9038L343.057 53.5068L335.694 56.5103L331.112 63.0272L328.122 55.6372Z" fill="white"></path><path d="M213.935 394.284L210.952 392.174L214.331 390.798L216.438 387.802L217.808 391.196L220.784 393.313L217.405 394.689L215.305 397.678L213.935 394.284Z" fill="white"></path><path d="M266.756 40.5078L263.78 38.3984L267.16 37.0154L269.259 34.0259L270.629 37.4205L273.612 39.53L270.233 40.913L268.126 43.9025L266.756 40.5078Z" fill="white"></path><path d="M309.704 354.491L311.644 348.812L315.357 353.513L321.01 355.462L316.33 359.192L314.39 364.871L310.678 360.17L305.025 358.221L309.704 354.491Z" fill="white"></path><defs><radialGradient id="astronauts0" cx="0" cy="0" r="1" gradientUnits="userSpaceOnUse" gradientTransform="translate(258.852 69.8579) scale(307.248 308.661)"><stop offset="0.2882" stop-color="#27272E"></stop><stop offset="1" stop-color="#121214"></stop></radialGradient><radialGradient id="astronauts1" cx="0" cy="0" r="1" gradientUnits="userSpaceOnUse" gradientTransform="translate(224.163 7.92913) rotate(34.7968) scale(97.5465 97.7035)"><stop offset="0.2882" stop-color="#27272E"></stop><stop offset="1" stop-color="#121214"></stop></radialGradient><linearGradient id="astronauts2" x1="90.8523" y1="15.1556" x2="43.0252" y2="92.3574" gradientUnits="userSpaceOnUse"><stop stop-color="#8157E4"></stop><stop offset="0.1004" stop-color="#7D55DD"></stop><stop offset="0.249" stop-color="#724EC9"></stop><stop offset="0.4275" stop-color="#6143A8"></stop><stop offset="0.6294" stop-color="#49347A"></stop><stop offset="0.8478" stop-color="#2A2141"></stop><stop offset="1" stop-color="#121214"></stop></linearGradient><linearGradient id="astronauts3" x1="57.9024" y1="53.2181" x2="47.1532" y2="130.482" gradientUnits="userSpaceOnUse"><stop stop-color="#8157E4"></stop><stop offset="0.1004" stop-color="#7D55DD"></stop><stop offset="0.249" stop-color="#724EC9"></stop><stop offset="0.4275" stop-color="#6143A8"></stop><stop offset="0.6294" stop-color="#49347A"></stop><stop offset="0.8478" stop-color="#2A2141"></stop><stop offset="1" stop-color="#121214"></stop></linearGradient><linearGradient id="astronauts4" x1="326.838" y1="79.1762" x2="209.296" y2="144.852" gradientUnits="userSpaceOnUse"><stop stop-color="#8157E4"></stop><stop offset="0.1004" stop-color="#7D55DD"></stop><stop offset="0.249" stop-color="#724EC9"></stop><stop offset="0.4275" stop-color="#6143A8"></stop><stop offset="0.6294" stop-color="#49347A"></stop><stop offset="0.8478" stop-color="#2A2141"></stop><stop offset="1" stop-color="#121214"></stop></linearGradient><radialGradient id="astronauts5" cx="0" cy="0" r="1" gradientUnits="userSpaceOnUse" gradientTransform="translate(456.823 116.357) rotate(25.6964) scale(75.7021 75.9196)"><stop offset="0.2882" stop-color="#27272E"></stop><stop offset="1" stop-color="#121214"></stop></radialGradient><linearGradient id="astronauts6" x1="429.915" y1="178.117" x2="417.439" y2="220.067" gradientUnits="userSpaceOnUse"><stop stop-color="#8157E4"></stop><stop offset="0.1004" stop-color="#7D55DD"></stop><stop offset="0.249" stop-color="#724EC9"></stop><stop offset="0.4275" stop-color="#6143A8"></stop><stop offset="0.6294" stop-color="#49347A"></stop><stop offset="0.8478" stop-color="#2A2141"></stop><stop offset="1" stop-color="#121214"></stop></linearGradient><linearGradient id="astronauts7" x1="366.397" y1="207.429" x2="428.227" y2="236.909" gradientUnits="userSpaceOnUse"><stop stop-color="#8157E4"></stop><stop offset="0.1004" stop-color="#7D55DD"></stop><stop offset="0.249" stop-color="#724EC9"></stop><stop offset="0.4275" stop-color="#6143A8"></stop><stop offset="0.6294" stop-color="#49347A"></stop><stop offset="0.8478" stop-color="#2A2141"></stop><stop offset="1" stop-color="#121214"></stop></linearGradient><linearGradient id="astronauts8" x1="316.59" y1="59.0941" x2="370.954" y2="190.494" gradientUnits="userSpaceOnUse"><stop offset="0.3276" stop-color="#8157E4"></stop><stop offset="0.395" stop-color="#7D55DD"></stop><stop offset="0.495" stop-color="#724EC9"></stop><stop offset="0.615" stop-color="#6143A8"></stop><stop offset="0.7508" stop-color="#49347A"></stop><stop offset="0.8976" stop-color="#2A2141"></stop><stop offset="1" stop-color="#121214"></stop></linearGradient><radialGradient id="astronauts9" cx="0" cy="0" r="1" gradientUnits="userSpaceOnUse" gradientTransform="translate(321.235 175.267) rotate(25.6964) scale(100.271 100.559)"><stop offset="0.2882" stop-color="#27272E"></stop><stop offset="1" stop-color="#121214"></stop></radialGradient></defs></svg>