<svg width="257" height="81" viewBox="0 0 257 81" fill="none" xmlns="http://www.w3.org/2000/svg"><path d="M65.1284 1.56081L54.4687 0.016432C54.1533 -0.0453432 53.8379 0.0781997 53.7118 0.20175L49.1704 6.00861C48.855 6.37927 48.7919 6.87347 48.9181 7.3059C49.0442 7.73832 48.6658 8.10898 48.2243 8.04721L44.5028 7.24412C43.9351 7.12057 43.3044 7.30591 42.9259 7.80011L28.1663 26.3327C27.914 26.7033 27.4094 26.8269 26.9679 26.6415L21.3542 24.1705C20.8496 23.9234 20.2819 23.9852 19.8404 24.2941L17.002 26.2091C16.5605 26.518 15.9297 26.5798 15.4251 26.3327L14.0375 25.6531C13.1544 25.2207 12.0821 25.7149 11.8298 26.6415L10.8206 31.0276C10.5683 32.0777 11.0098 33.1279 11.956 33.6839L14.1005 34.9812L20.9757 39.1201L24.3187 41.1587C25.2648 41.7147 26.4633 41.5911 27.2833 40.9116L32.897 36.0931C33.3385 35.7225 34.0323 35.5989 34.5369 35.9078L36.24 36.7727C36.8076 37.0815 37.5015 36.958 37.943 36.5256L40.7814 33.931C41.2229 33.4986 41.9167 33.4368 42.4213 33.6839L46.6474 35.5989C47.2781 35.9078 48.035 35.7225 48.4765 35.1665L50.4319 32.6955L65.2546 14.1012C65.9484 13.2363 65.5069 11.939 64.3715 11.6919L61.0916 10.9506C60.3978 10.8271 60.0824 9.96223 60.587 9.46803L65.6961 3.22873C66.2007 2.48743 65.8853 1.68436 65.1284 1.56081Z" fill="#8257E6"></path><path d="M16.2443 38.9954C15.929 38.8101 15.6136 39.1189 15.7397 39.4278L17.3166 43.505C17.4428 43.8139 17.4428 44.1227 17.3797 44.4316L15.992 49.7443C15.929 50.1149 16.0551 50.4856 16.3074 50.6709L20.2812 53.6979C20.6596 53.945 21.1642 53.945 21.4796 53.6361L25.6425 50.0531C25.8948 49.8678 26.2102 49.7443 26.4625 49.6825L31.1932 49.1883C31.5085 49.1265 31.6347 48.6941 31.3193 48.5088L16.2443 38.9954Z" fill="#8257E6"></path><path d="M14.8571 52.7093C14.6048 52.524 14.2263 52.4622 13.9109 52.5858L10.568 54.1919C10.3787 54.2537 10.2526 54.439 10.1264 54.6243L2.99892 71.8596C2.99892 71.9214 2.99892 71.9214 2.99892 71.9832C3.062 72.0449 3.12507 72.1067 3.25122 72.1067L4.89118 71.489C4.95426 71.489 5.01732 71.489 5.0804 71.489C5.14348 71.5507 5.20655 71.6743 5.14348 71.7361L0.0343808 79.9522C-0.0917697 80.1375 0.160537 80.3228 0.286688 80.1375L18.7677 61.9756C18.957 61.7903 19.02 61.6049 19.0831 61.3578L19.4616 56.6629C19.4616 56.354 19.3354 56.1069 19.1462 55.9216L14.8571 52.7093Z" fill="#8257E6"></path><path d="M101.368 32.5903V4.07708H111.249C114.672 4.07708 117.268 4.74291 119.037 6.07457C120.807 7.39318 121.691 9.33193 121.691 11.8908C121.691 13.2877 121.336 14.5215 120.626 15.592C119.915 16.6495 118.927 17.4263 117.662 17.9225C119.108 18.288 120.245 19.0256 121.071 20.1354C121.911 21.2451 122.331 22.6029 122.331 24.2087C122.331 26.9503 121.465 29.0262 119.735 30.4362C118.004 31.8462 115.537 32.5642 112.334 32.5903H101.368ZM107.18 20.1745V27.8708H112.159C113.528 27.8708 114.594 27.5444 115.356 26.8916C116.131 26.2258 116.519 25.3119 116.519 24.1499C116.519 21.5388 115.182 20.2137 112.508 20.1745H107.18ZM107.18 16.0229H111.481C114.413 15.9707 115.879 14.7891 115.879 12.4783C115.879 11.1858 115.505 10.2589 114.755 9.69748C114.019 9.12304 112.85 8.83582 111.249 8.83582H107.18V16.0229Z" fill="#E1E1E6"></path><path d="M125.469 21.7999C125.469 19.698 125.87 17.8245 126.67 16.1795C127.471 14.5345 128.621 13.2616 130.119 12.3608C131.63 11.46 133.38 11.0096 135.369 11.0096C138.198 11.0096 140.503 11.8843 142.286 13.6337C144.081 15.3832 145.082 17.7593 145.289 20.762L145.328 22.2112C145.328 25.462 144.43 28.0731 142.635 30.0445C140.839 32.0028 138.43 32.982 135.408 32.982C132.386 32.982 129.97 32.0028 128.162 30.0445C126.367 28.0862 125.469 25.4228 125.469 22.0545V21.7999ZM131.068 22.2112C131.068 24.2217 131.443 25.7623 132.192 26.8328C132.941 27.8903 134.013 28.4191 135.408 28.4191C136.764 28.4191 137.823 27.8969 138.585 26.8524C139.347 25.7949 139.728 24.1108 139.728 21.7999C139.728 19.8286 139.347 18.3011 138.585 17.2175C137.823 16.1338 136.751 15.592 135.369 15.592C134 15.592 132.941 16.1338 132.192 17.2175C131.443 18.288 131.068 19.9526 131.068 22.2112Z" fill="#E1E1E6"></path><path d="M147.904 21.7999C147.904 19.698 148.305 17.8245 149.105 16.1795C149.906 14.5345 151.056 13.2616 152.554 12.3608C154.065 11.46 155.815 11.0096 157.804 11.0096C160.633 11.0096 162.938 11.8843 164.721 13.6337C166.516 15.3832 167.517 17.7593 167.724 20.762L167.763 22.2112C167.763 25.462 166.865 28.0731 165.07 30.0445C163.274 32.0028 160.865 32.982 157.843 32.982C154.821 32.982 152.406 32.0028 150.597 30.0445C148.802 28.0862 147.904 25.4228 147.904 22.0545V21.7999ZM153.503 22.2112C153.503 24.2217 153.878 25.7623 154.627 26.8328C155.376 27.8903 156.448 28.4191 157.843 28.4191C159.199 28.4191 160.258 27.8969 161.02 26.8524C161.782 25.7949 162.164 24.1108 162.164 21.7999C162.164 19.8286 161.782 18.3011 161.02 17.2175C160.258 16.1338 159.186 15.592 157.804 15.592C156.435 15.592 155.376 16.1338 154.627 17.2175C153.878 18.288 153.503 19.9526 153.503 22.2112Z" fill="#E1E1E6"></path><path d="M182.564 26.7349C182.564 26.043 182.222 25.5012 181.537 25.1095C180.866 24.7048 179.781 24.3458 178.283 24.0324C173.297 22.9749 170.804 20.8338 170.804 17.6091C170.804 15.7291 171.573 14.1625 173.11 12.9091C174.66 11.6428 176.681 11.0096 179.174 11.0096C181.835 11.0096 183.959 11.6428 185.548 12.9091C187.149 14.1755 187.95 15.8205 187.95 17.8441H182.351C182.351 17.0347 182.093 16.3688 181.576 15.8466C181.06 15.3114 180.252 15.0437 179.154 15.0437C178.212 15.0437 177.482 15.2591 176.965 15.69C176.449 16.1208 176.19 16.6691 176.19 17.335C176.19 17.9616 176.481 18.4708 177.062 18.8625C177.656 19.2411 178.651 19.574 180.046 19.8612C181.441 20.1354 182.616 20.4487 183.572 20.8012C186.529 21.8979 188.008 23.7974 188.008 26.4999C188.008 28.4321 187.188 29.9988 185.548 31.1999C183.908 32.388 181.789 32.982 179.193 32.982C177.437 32.982 175.874 32.6687 174.505 32.042C173.149 31.4023 172.083 30.5341 171.308 29.4374C170.533 28.3277 170.146 27.1331 170.146 25.8537H175.454C175.506 26.859 175.874 27.6292 176.558 28.1645C177.243 28.6998 178.16 28.9674 179.309 28.9674C180.381 28.9674 181.189 28.7651 181.731 28.3603C182.287 27.9426 182.564 27.4008 182.564 26.7349Z" fill="#E1E1E6"></path><path d="M198.335 6.19207V11.4012H201.919V15.5529H198.335V26.1278C198.335 26.9112 198.483 27.4726 198.78 27.812C199.077 28.1515 199.646 28.3212 200.485 28.3212C201.105 28.3212 201.654 28.2755 202.132 28.1841V32.4728C201.034 32.8123 199.904 32.982 198.742 32.982C194.815 32.982 192.813 30.978 192.736 26.9699V15.5529H189.675V11.4012H192.736V6.19207H198.335Z" fill="#E1E1E6"></path><path d="M210.947 32.5903H205.329V11.4012H210.947V32.5903ZM204.999 5.91791C204.999 5.0693 205.277 4.37083 205.832 3.8225C206.401 3.27417 207.169 3 208.138 3C209.094 3 209.856 3.27417 210.424 3.8225C210.992 4.37083 211.276 5.0693 211.276 5.91791C211.276 6.77957 210.986 7.48457 210.405 8.0329C209.836 8.58123 209.081 8.8554 208.138 8.8554C207.195 8.8554 206.433 8.58123 205.852 8.0329C205.283 7.48457 204.999 6.77957 204.999 5.91791Z" fill="#E1E1E6"></path><path d="M220.731 11.4012L220.905 13.8491C222.404 11.9561 224.412 11.0096 226.931 11.0096C229.152 11.0096 230.805 11.6689 231.89 12.9875C232.975 14.3061 233.531 16.2775 233.556 18.9016V32.5903H227.957V19.0387C227.957 17.8376 227.699 16.9694 227.182 16.4341C226.666 15.8858 225.807 15.6116 224.606 15.6116C223.03 15.6116 221.848 16.2905 221.06 17.6483V32.5903H215.461V11.4012H220.731Z" fill="#E1E1E6"></path><path d="M237.005 21.8391C237.005 18.5883 237.767 15.9707 239.291 13.9862C240.828 12.0018 242.895 11.0096 245.491 11.0096C247.79 11.0096 249.579 11.8059 250.857 13.3987L251.09 11.4012H256.166V31.8853C256.166 33.7392 255.746 35.3516 254.907 36.7224C254.08 38.0932 252.911 39.1377 251.4 39.8557C249.889 40.5738 248.119 40.9328 246.091 40.9328C244.554 40.9328 243.056 40.6195 241.597 39.9928C240.137 39.3792 239.033 38.5828 238.284 37.6036L240.764 34.157C242.158 35.7367 243.85 36.5266 245.84 36.5266C247.325 36.5266 248.481 36.1218 249.307 35.3124C250.134 34.516 250.547 33.3802 250.547 31.9049V30.7691C249.256 32.2444 247.557 32.982 245.452 32.982C242.933 32.982 240.893 31.9898 239.33 30.0053C237.78 28.0078 237.005 25.3641 237.005 22.0741V21.8391ZM242.604 22.2504C242.604 24.1695 242.985 25.6774 243.747 26.7741C244.509 27.8577 245.555 28.3995 246.886 28.3995C248.591 28.3995 249.811 27.7533 250.547 26.4608V17.5504C249.798 16.2579 248.591 15.6116 246.924 15.6116C245.581 15.6116 244.522 16.1665 243.747 17.2762C242.985 18.3859 242.604 20.044 242.604 22.2504Z" fill="#E1E1E6"></path><path d="M119.87 62.2982C119.87 65.562 119.134 68.1797 117.662 70.151C116.202 72.1094 114.226 73.0885 111.733 73.0885C109.615 73.0885 107.904 72.3444 106.599 70.856V80.8435H101V51.5078H106.192L106.386 53.5836C107.742 51.9386 109.512 51.1161 111.694 51.1161C114.278 51.1161 116.286 52.0822 117.72 54.0144C119.153 55.9466 119.87 58.61 119.87 62.0044V62.2982ZM114.271 61.8869C114.271 59.9155 113.922 58.3946 113.225 57.324C112.54 56.2534 111.539 55.7182 110.222 55.7182C108.465 55.7182 107.258 56.3971 106.599 57.7548V66.4302C107.284 67.8272 108.504 68.5256 110.261 68.5256C112.934 68.5256 114.271 66.3127 114.271 61.8869Z" fill="#E1E1E6"></path><path d="M133.006 73.0885C129.932 73.0885 127.426 72.1355 125.489 70.2294C123.564 68.3233 122.602 65.784 122.602 62.6115V62.0632C122.602 59.9351 123.009 58.0355 123.822 56.3644C124.636 54.6803 125.786 53.3878 127.271 52.4869C128.769 51.573 130.474 51.1161 132.386 51.1161C135.253 51.1161 137.507 52.03 139.147 53.8578C140.801 55.6855 141.627 58.2771 141.627 61.6323V63.9431H128.279C128.459 65.327 129.002 66.4367 129.906 67.2723C130.823 68.1079 131.979 68.5256 133.374 68.5256C135.531 68.5256 137.216 67.7358 138.43 66.1561L141.182 69.2698C140.342 70.4709 139.205 71.4109 137.772 72.0898C136.338 72.7556 134.749 73.0885 133.006 73.0885ZM132.366 55.6986C131.256 55.6986 130.352 56.0772 129.654 56.8344C128.97 57.5916 128.53 58.6752 128.337 60.0852H136.125V59.6348C136.099 58.3815 135.763 57.4154 135.118 56.7365C134.472 56.0446 133.555 55.6986 132.366 55.6986Z" fill="#E1E1E6"></path><path d="M143.952 61.9065C143.952 59.8046 144.352 57.9311 145.153 56.2861C145.954 54.6411 147.104 53.3682 148.602 52.4674C150.113 51.5665 151.863 51.1161 153.852 51.1161C156.681 51.1161 158.986 51.9908 160.769 53.7403C162.564 55.4897 163.565 57.8658 163.772 60.8686L163.81 62.3177C163.81 65.5686 162.913 68.1797 161.117 70.151C159.322 72.1094 156.913 73.0885 153.891 73.0885C150.869 73.0885 148.453 72.1094 146.645 70.151C144.85 68.1927 143.952 65.5294 143.952 62.1611V61.9065ZM149.551 62.3177C149.551 64.3283 149.926 65.8688 150.675 66.9394C151.424 67.9969 152.496 68.5256 153.891 68.5256C155.247 68.5256 156.306 68.0034 157.068 66.959C157.83 65.9015 158.211 64.2173 158.211 61.9065C158.211 59.9351 157.83 58.4076 157.068 57.324C156.306 56.2404 155.234 55.6986 153.852 55.6986C152.483 55.6986 151.424 56.2404 150.675 57.324C149.926 58.3946 149.551 60.0591 149.551 62.3177Z" fill="#E1E1E6"></path><path d="M186.129 62.2982C186.129 65.562 185.393 68.1797 183.92 70.151C182.461 72.1094 180.485 73.0885 177.992 73.0885C175.874 73.0885 174.162 72.3444 172.858 70.856V80.8435H167.259V51.5078H172.451L172.645 53.5836C174.001 51.9386 175.77 51.1161 177.953 51.1161C180.536 51.1161 182.545 52.0822 183.979 54.0144C185.412 55.9466 186.129 58.61 186.129 62.0044V62.2982ZM180.53 61.8869C180.53 59.9155 180.181 58.3946 179.484 57.324C178.799 56.2534 177.798 55.7182 176.481 55.7182C174.724 55.7182 173.517 56.3971 172.858 57.7548V66.4302C173.542 67.8272 174.763 68.5256 176.52 68.5256C179.193 68.5256 180.53 66.3127 180.53 61.8869Z" fill="#E1E1E6"></path><path d="M195.525 72.6969H189.907V42.617H195.525V72.6969Z" fill="#E1E1E6"></path><path d="M209.804 73.0885C206.73 73.0885 204.224 72.1355 202.287 70.2294C200.362 68.3233 199.4 65.784 199.4 62.6115V62.0632C199.4 59.9351 199.807 58.0355 200.621 56.3644C201.434 54.6803 202.584 53.3878 204.069 52.4869C205.568 51.573 207.272 51.1161 209.184 51.1161C212.051 51.1161 214.305 52.03 215.946 53.8578C217.599 55.6855 218.425 58.2771 218.425 61.6323V63.9431H205.077C205.258 65.327 205.8 66.4367 206.704 67.2723C207.621 68.1079 208.777 68.5256 210.172 68.5256C212.329 68.5256 214.015 67.7358 215.229 66.1561L217.98 69.2698C217.14 70.4709 216.004 71.4109 214.57 72.0898C213.136 72.7556 211.548 73.0885 209.804 73.0885ZM209.165 55.6986C208.054 55.6986 207.15 56.0772 206.452 56.8344C205.768 57.5916 205.329 58.6752 205.135 60.0852H212.923V59.6348C212.897 58.3815 212.562 57.4154 211.916 56.7365C211.27 56.0446 210.353 55.6986 209.165 55.6986Z" fill="#E1E1E6"></path><path d="M222 70.0354C222 69.1346 222.297 68.4035 222.891 67.8421C223.498 67.2807 224.254 67 225.158 67C226.075 67 226.831 67.2807 227.425 67.8421C228.032 68.4035 228.335 69.1346 228.335 70.0354C228.335 70.9232 228.038 71.6478 227.444 72.2092C226.85 72.7575 226.088 73.0316 225.158 73.0316C224.241 73.0316 223.485 72.7575 222.891 72.2092C222.297 71.6478 222 70.9232 222 70.0354Z" fill="#04D361"></path></svg>