<svg width="48" height="48" viewBox="0 0 48 48" fill="none" xmlns="http://www.w3.org/2000/svg">
  <path d="M4 16H44" stroke="white" stroke-width="3" stroke-linejoin="round"/>
  <path fill-rule="evenodd" clip-rule="evenodd" d="M40 42H8C5.79 42 4 40.21 4 38V10C4 7.79 5.79 6 8 6H40C42.21 6 44 7.79 44 10V38C44 40.21 42.21 42 40 42Z" stroke-width="3" stroke-linecap="round" stroke-linejoin="round"/>
  <path fill-rule="evenodd" clip-rule="evenodd" d="M40 42H8C5.79 42 4 40.21 4 38V10C4 7.79 5.79 6 8 6H40C42.21 6 44 7.79 44 10V38C44 40.21 42.21 42 40 42Z" stroke="url(#paint0_linear_8585_31914)" stroke-width="3" stroke-linecap="round" stroke-linejoin="round"/>
  <path d="M9.55811 10.9802C9.55211 10.9802 9.54811 10.9842 9.54811 10.9902C9.54811 10.9962 9.55211 11.0002 9.55811 11.0002C9.56411 11.0002 9.56811 10.9962 9.56811 10.9902C9.56811 10.9842 9.56411 10.9802 9.55811 10.9802" stroke="white" stroke-width="3" stroke-linecap="round" stroke-linejoin="round"/>
  <path d="M14.644 10.9802C14.638 10.9802 14.634 10.9842 14.634 10.9902C14.634 10.9962 14.64 11.0002 14.644 11.0002C14.65 11.0002 14.654 10.9962 14.654 10.9902C14.654 10.9842 14.65 10.9802 14.644 10.9802" stroke="white" stroke-width="3" stroke-linecap="round" stroke-linejoin="round"/>
  <path d="M19.7219 10.9802C19.7159 10.9802 19.7119 10.9842 19.7119 10.9902C19.7119 10.9962 19.7159 11.0002 19.7219 11.0002C19.7279 11.0002 19.7319 10.9962 19.7319 10.9902C19.7319 10.9842 19.7279 10.9802 19.7219 10.9802" stroke="white" stroke-width="3" stroke-linecap="round" stroke-linejoin="round"/>
  <path d="M25.5599 22L22.4399 36" stroke="url(#paint1_linear_8585_31914)" stroke-width="3" stroke-linecap="square" stroke-linejoin="round"/>
  <path d="M30.5 25.5L34 29L30.5 32.5" stroke="url(#paint2_linear_8585_31914)" stroke-width="3" stroke-linecap="square" stroke-linejoin="round"/>
  <path d="M17.5 32.5L14 29L17.5 25.5" stroke="url(#paint3_linear_8585_31914)" stroke-width="3" stroke-linecap="square" stroke-linejoin="round"/>
  <defs>
    <linearGradient id="paint0_linear_8585_31914" x1="24" y1="6" x2="24" y2="42" gradientUnits="userSpaceOnUse">
      <stop stop-color="#8257E5"/>
      <stop offset="1" stop-color="#2B2146"/>
    </linearGradient>
    <linearGradient id="paint1_linear_8585_31914" x1="25.5561" y1="35.8302" x2="25.5561" y2="22.0174" gradientUnits="userSpaceOnUse">
      <stop stop-color="#04D361" stop-opacity="0.25"/>
      <stop offset="1" stop-color="#04D361"/>
    </linearGradient>
    <linearGradient id="paint2_linear_8585_31914" x1="33.9956" y1="32.4151" x2="33.9956" y2="25.5087" gradientUnits="userSpaceOnUse">
      <stop stop-color="#04D361" stop-opacity="0.25"/>
      <stop offset="1" stop-color="#04D361"/>
    </linearGradient>
    <linearGradient id="paint3_linear_8585_31914" x1="17.4956" y1="32.4151" x2="17.4956" y2="25.5087" gradientUnits="userSpaceOnUse">
      <stop stop-color="#04D361" stop-opacity="0.25"/>
      <stop offset="1" stop-color="#04D361"/>
    </linearGradient>
  </defs>
</svg>
