<svg width="110" height="32" viewBox="0 0 110 32" fill="none" xmlns="http://www.w3.org/2000/svg">
<path opacity="0.3" d="M27.392 7.90716L20.5429 11.8607L13.6982 15.8143L6.8491 19.7679L0 23.7215V7.90716L13.6982 0L27.392 7.90716Z" fill="#42D3FF"/>
<path opacity="0.6" d="M27.392 23.7216L13.6982 31.6288L0 23.7216L6.8491 19.768L13.6982 15.8145L20.5429 19.768L27.392 23.7216Z" fill="#42D3FF"/>
<path d="M27.3923 7.90723V23.7215L20.5432 19.768L13.6985 15.8144L20.5432 11.8608L27.3923 7.90723Z" fill="#42D3FF"/>
<path d="M47.3706 21.5085C45.8156 21.5085 44.5494 21.0313 43.5719 20.0768C42.5945 19.1223 42.1068 17.8512 42.1089 16.2635V15.9897C42.0918 15.0021 42.3031 14.0239 42.7265 13.1315C43.1068 12.3272 43.7152 11.6523 44.4759 11.1909C45.2575 10.7295 46.1517 10.4936 47.0592 10.5095C48.5097 10.5095 49.6516 10.9669 50.4848 11.8817C51.3181 12.7964 51.7361 14.0937 51.7389 15.7734V16.9302H44.9838C45.0757 17.6234 45.352 18.1808 45.8125 18.6023C46.273 19.0238 46.8561 19.2328 47.5619 19.2293C48.6536 19.2293 49.5067 18.8339 50.1212 18.0432L51.5131 19.6024C51.0729 20.2159 50.4774 20.7013 49.7878 21.009C49.0286 21.3511 48.2033 21.5217 47.3706 21.5085V21.5085ZM47.0477 12.794C46.7921 12.785 46.5375 12.8313 46.3014 12.9298C46.0653 13.0283 45.8533 13.1766 45.6798 13.3646C45.3314 13.745 45.1078 14.2898 45.0088 14.999H48.9486V14.7722C48.9361 14.1452 48.7664 13.6575 48.4397 13.3092C48.1129 12.9608 47.649 12.7891 47.0477 12.794V12.794Z" fill="white"/>
<path d="M56.5767 13.8705L58.3616 10.7041H61.3922L58.3731 15.9L61.5155 21.3091H58.4766L56.584 17.9765L54.703 21.3091H51.6536L54.8002 15.8979L51.7967 10.7041H54.8273L56.5767 13.8705Z" fill="white"/>
<path d="M71.4973 16.1066C71.4973 17.741 71.1264 19.0498 70.3844 20.0328C69.6424 21.0158 68.6409 21.5077 67.3799 21.5084C66.3091 21.5084 65.4431 21.1357 64.7819 20.3902V25.3855H61.95V10.7049H64.5761L64.6743 11.7499C65.3613 10.9264 66.2565 10.5146 67.3601 10.5146C68.6671 10.5146 69.6835 10.9982 70.4095 11.9652C71.1354 12.9322 71.498 14.2653 71.4973 15.9645V16.1066ZM68.6643 15.8976C68.6643 14.9111 68.4901 14.1496 68.1418 13.6132C67.7934 13.0767 67.2855 12.8089 66.6181 12.8095C65.7284 12.8095 65.1171 13.1495 64.784 13.8295V18.1747C65.1324 18.8749 65.75 19.2233 66.6369 19.2198C67.9885 19.2198 68.6643 18.1134 68.6643 15.9007V15.8976Z" fill="white"/>
<path d="M75.439 21.3096H72.5923V6.25488H75.4358L75.439 21.3096Z" fill="white"/>
<path d="M76.5282 15.9115C76.5103 14.9391 76.7181 13.9758 77.1353 13.0973C77.5163 12.3006 78.1256 11.6353 78.8858 11.1859C79.6465 10.7358 80.5303 10.5105 81.537 10.5098C82.9687 10.5098 84.137 10.9476 85.042 11.8234C85.947 12.6991 86.4518 13.8883 86.5563 15.3911L86.5761 16.1164C86.5761 17.7445 86.1233 19.0501 85.2176 20.0331C84.3119 21.0162 83.0927 21.508 81.56 21.5087C80.0308 21.5087 78.8116 21.0186 77.9024 20.0384C76.9932 19.0581 76.5376 17.7247 76.5355 16.038L76.5282 15.9115ZM79.3612 16.1122C79.3612 17.121 79.5507 17.8915 79.9297 18.4238C80.3087 18.9561 80.8511 19.2229 81.5568 19.2243C82.2424 19.2243 82.7782 18.9609 83.1641 18.4342C83.5501 17.9075 83.7431 17.0649 83.7431 15.9063C83.7431 14.9177 83.5501 14.1514 83.1641 13.6072C82.7782 13.0631 82.2357 12.7918 81.537 12.7932C80.8445 12.7932 80.3087 13.0631 79.9297 13.6031C79.5507 14.143 79.3612 14.9794 79.3612 16.1122V16.1122Z" fill="white"/>
<path d="M93.4774 13.3683C93.1399 13.3196 92.7995 13.2934 92.4585 13.2899C91.3863 13.2899 90.6837 13.6525 90.3507 14.3778V21.3105H87.5176V10.7034H90.1939L90.2723 11.969C90.8408 10.9936 91.6284 10.5059 92.6351 10.5059C92.9339 10.504 93.2312 10.5469 93.5171 10.6334L93.4774 13.3683Z" fill="white"/>
<path d="M98.7322 21.5085C97.1772 21.5085 95.9109 21.0313 94.9335 20.0768C93.956 19.1223 93.4684 17.8512 93.4704 16.2635V15.9897C93.4533 15.0021 93.6647 14.0239 94.0881 13.1315C94.4684 12.3272 95.0767 11.6523 95.8374 11.1909C96.619 10.7295 97.5133 10.4936 98.4208 10.5095C99.8713 10.5095 101.013 10.9669 101.846 11.8817C102.68 12.7964 103.098 14.0937 103.1 15.7734V16.9302H96.3464C96.4383 17.6234 96.7146 18.1808 97.1751 18.6023C97.6356 19.0238 98.2187 19.2328 98.9245 19.2293C100.016 19.2293 100.869 18.8339 101.484 18.0432L102.876 19.6024C102.435 20.2159 101.84 20.7013 101.15 21.009C100.391 21.3513 99.5652 21.5219 98.7322 21.5085V21.5085ZM98.4092 12.794C98.154 12.786 97.9001 12.8331 97.6648 12.9321C97.4295 13.0311 97.2182 13.1797 97.0455 13.3677C96.6972 13.7481 96.4731 14.2929 96.3735 15.0021H100.314V14.7754C100.302 14.1483 100.132 13.6607 99.8054 13.3123C99.4787 12.964 99.0133 12.7912 98.4092 12.794Z" fill="white"/>
<path d="M109.86 13.3683C109.522 13.3196 109.182 13.2934 108.84 13.2899C107.768 13.2899 107.065 13.6525 106.732 14.3778V21.3105H103.899V10.7034H106.576L106.654 11.969C107.223 10.9936 108.01 10.5059 109.017 10.5059C109.316 10.5039 109.613 10.5469 109.899 10.6334L109.86 13.3683Z" fill="white"/>
</svg>
