<svg width="80" height="80" viewBox="0 0 80 80" fill="none" xmlns="http://www.w3.org/2000/svg"><path fill-rule="evenodd" clip-rule="evenodd" d="M29.9844 40.8112L31.0627 39.1267L27.6938 36.9702L26.6155 38.6547L20.816 47.7146C19.7921 47.4079 18.7069 47.2432 17.5834 47.2432C11.3684 47.2432 6.33344 52.2824 6.33344 58.4932C6.33344 64.7077 11.3689 69.7432 17.5834 69.7432C23.7997 69.7432 28.8294 64.703 28.8334 58.4945L26.8334 58.4932H28.8334C28.8334 54.8404 27.0928 51.5953 24.3966 49.5404L29.9844 40.8112ZM20.4214 51.8198L22.2062 52.9623L22.2288 52.9269C23.8205 54.2567 24.8334 56.2564 24.8334 58.4932C24.8301 62.4973 21.5868 65.7432 17.5834 65.7432C13.578 65.7432 10.3334 62.4986 10.3334 58.4932C10.3334 54.4906 13.5785 51.2432 17.5834 51.2432C18.5905 51.2432 19.5497 51.4486 20.4214 51.8198Z" fill="url(#paint0_linear)"></path><path fill-rule="evenodd" clip-rule="evenodd" d="M32.7499 21.5056C32.7499 17.503 35.995 14.2556 39.9999 14.2556C44.0025 14.2556 47.2499 17.5007 47.2499 21.5056C47.2499 23.8823 46.1058 25.9928 44.3377 27.3152L43.4481 27.8846C42.423 28.44 41.249 28.7554 40.0011 28.7556C35.9929 28.7496 32.7499 25.5025 32.7499 21.5056ZM44.3114 31.8998C42.9837 32.4512 41.5275 32.7556 39.9999 32.7556L39.9973 32.7556L39.9954 32.7556C33.7852 32.7465 28.7499 27.7143 28.7499 21.5056C28.7499 15.2948 33.7849 10.2556 39.9999 10.2556C46.2107 10.2556 51.2499 15.2906 51.2499 21.5056C51.2499 24.7521 49.8742 27.6785 47.6733 29.7324L53.3844 38.6543L54.4627 40.3387L51.0938 42.4952L50.0156 40.8108L44.3114 31.8998Z" fill="#E1E1E6"></path><path fill-rule="evenodd" clip-rule="evenodd" d="M55.17 58.4932C55.17 54.4906 58.415 51.2432 62.42 51.2432C66.4225 51.2432 69.67 54.4882 69.67 58.4932C69.67 62.4957 66.4249 65.7432 62.42 65.7432C58.4117 65.7432 55.17 62.4991 55.17 58.4932ZM51.3481 60.4989C52.2931 65.7558 56.8867 69.7432 62.42 69.7432C68.635 69.7432 73.67 64.7039 73.67 58.4932C73.67 52.2781 68.6307 47.2432 62.42 47.2432C56.8859 47.2432 52.2875 51.2386 51.3462 56.4989H40H38V60.4989H40H51.3481Z" fill="url(#paint1_linear)"></path><defs><linearGradient id="paint0_linear" x1="10" y1="70" x2="24.8284" y2="35.7603" gradientUnits="userSpaceOnUse"><stop stop-color="#8257E5"></stop><stop offset="1" stop-color="#8257E5" stop-opacity="0.25"></stop></linearGradient><linearGradient id="paint1_linear" x1="74" y1="58" x2="38" y2="58" gradientUnits="userSpaceOnUse"><stop stop-color="#04D361"></stop><stop offset="1" stop-color="#04D361" stop-opacity="0.25"></stop></linearGradient></defs></svg>