<svg width="98" height="32" viewBox="0 0 98 32" fill="none" xmlns="http://www.w3.org/2000/svg">
<path d="M46.9004 7.00794C46.9004 6.55905 47.0471 6.18786 47.3493 5.89435C47.6514 5.60085 48.0658 5.4541 48.5837 5.4541C49.093 5.4541 49.5074 5.60085 49.8095 5.89435C50.1117 6.18786 50.267 6.55905 50.267 7.00794C50.267 7.46546 50.1117 7.83666 49.8009 8.13016C49.4901 8.42366 49.0844 8.57041 48.5751 8.57041C48.0658 8.57041 47.66 8.42366 47.3493 8.13016C47.0558 7.84529 46.9004 7.46546 46.9004 7.00794ZM50.0944 21.1738H47.0817V9.91707H50.0944V21.1738Z" fill="white"/>
<path d="M51.8115 15.468C51.8115 13.7415 52.2259 12.3516 53.046 11.2985C53.866 10.2453 54.971 9.71875 56.3695 9.71875C57.6039 9.71875 58.5621 10.1417 59.2527 10.9877L59.3735 9.92593H62.1014V20.8028C62.1014 21.7869 61.877 22.6415 61.4281 23.3753C60.9792 24.1004 60.349 24.6615 59.5376 25.0413C58.7261 25.4212 57.7765 25.6111 56.6889 25.6111C55.8601 25.6111 55.0573 25.4471 54.2804 25.119C53.4949 24.791 52.9078 24.368 52.5021 23.8414L53.8315 22.0113C54.5825 22.8487 55.4889 23.2717 56.5594 23.2717C57.3536 23.2717 57.9751 23.0559 58.424 22.6329C58.8642 22.2099 59.0887 21.6056 59.0887 20.8201V20.2158C58.3981 21.0014 57.483 21.3898 56.3522 21.3898C54.9969 21.3898 53.9092 20.8632 53.0719 19.8014C52.2345 18.7483 51.8202 17.3412 51.8202 15.5974V15.468H51.8115ZM54.8156 15.6838C54.8156 16.7024 55.0228 17.5052 55.4285 18.0836C55.8342 18.662 56.3954 18.9555 57.1118 18.9555C58.0269 18.9555 58.6829 18.6102 59.08 17.9282V13.189C58.6743 12.4984 58.0269 12.1617 57.1377 12.1617C56.4126 12.1617 55.8515 12.4552 55.4371 13.0509C55.0228 13.6292 54.8156 14.5184 54.8156 15.6838Z" fill="white"/>
<path d="M66.8503 9.91762L66.9452 11.2211C67.7481 10.2198 68.8271 9.71045 70.1824 9.71045C71.3737 9.71045 72.2628 10.0644 72.8412 10.7636C73.4196 11.4628 73.7217 12.5074 73.739 13.9058V21.1743H70.7349V13.9749C70.7349 13.3361 70.5968 12.8786 70.3205 12.5851C70.0443 12.3002 69.5781 12.1534 68.9393 12.1534C68.0934 12.1534 67.4632 12.516 67.0402 13.2325V21.1657H64.0361V9.91762H66.8503Z" fill="white"/>
<path d="M75.6719 7.00794C75.6719 6.55905 75.8186 6.18786 76.1208 5.89435C76.4229 5.60085 76.8372 5.4541 77.3552 5.4541C77.8645 5.4541 78.2789 5.60085 78.581 5.89435C78.8831 6.18786 79.0385 6.55905 79.0385 7.00794C79.0385 7.46546 78.8831 7.83666 78.5724 8.13016C78.2616 8.42366 77.8559 8.57041 77.3466 8.57041C76.8372 8.57041 76.4315 8.42366 76.1208 8.13016C75.8273 7.84529 75.6719 7.46546 75.6719 7.00794ZM78.8659 21.1738H75.8532V9.91707H78.8659V21.1738Z" fill="white"/>
<path d="M84.6248 7.15479V9.91717H86.5498V12.1184H84.6248V17.7382C84.6248 18.1525 84.7025 18.4547 84.8665 18.6359C85.0219 18.8172 85.3326 18.9035 85.7815 18.9035C86.1182 18.9035 86.4117 18.8777 86.662 18.8345V21.1135C86.075 21.2947 85.4621 21.3811 84.8406 21.3811C82.7342 21.3811 81.6552 20.3193 81.6206 18.1871V12.1271H79.9805V9.9258H81.6206V7.16342H84.6248V7.15479Z" fill="white"/>
<path d="M93.0754 21.3809C91.4266 21.3809 90.08 20.8716 89.0441 19.8616C88.0082 18.8516 87.4902 17.5049 87.4902 15.8129V15.5194C87.4902 14.3886 87.706 13.3786 88.1463 12.4895C88.5866 11.6003 89.1995 10.9097 90.0023 10.4263C90.8051 9.94288 91.7201 9.70117 92.7388 9.70117C94.2753 9.70117 95.4925 10.1846 96.373 11.1601C97.2535 12.1269 97.7024 13.5081 97.7024 15.2864V16.5122H90.5375C90.6325 17.2459 90.926 17.8329 91.418 18.2818C91.91 18.7221 92.523 18.9465 93.274 18.9465C94.4307 18.9465 95.3371 18.5235 95.9846 17.6862L97.4607 19.3436C97.0118 19.9824 96.3989 20.4831 95.6306 20.837C94.871 21.1996 94.0164 21.3809 93.0754 21.3809ZM92.7388 12.1355C92.1431 12.1355 91.6597 12.3341 91.2885 12.7398C90.9173 13.1455 90.6842 13.7239 90.572 14.4749H94.7501V14.2332C94.7329 13.5685 94.5602 13.0506 94.2063 12.6794C93.861 12.3168 93.3689 12.1355 92.7388 12.1355Z" fill="white"/>
<path opacity="0.5" d="M31.3538 0.211751L23.6806 28.863C23.6416 28.993 23.4855 29.0321 23.3945 28.941L18.2573 23.8038L22.1069 9.44569C22.1459 9.31564 22.0289 9.19859 21.8988 9.23761L7.54068 13.0872L2.4295 7.97607C2.33846 7.88503 2.37748 7.72896 2.50753 7.68994L31.1458 0.00366253C31.2758 -0.0223486 31.3929 0.0947014 31.3538 0.211751Z" fill="#00B37E"/>
<path opacity="0.5" d="M18.2574 23.804L16.2805 31.2171C16.2415 31.3472 16.0855 31.3862 15.9944 31.2952L0.0496158 15.3634C-0.041423 15.2723 -0.00240657 15.1163 0.127649 15.0773L7.54081 13.0874L18.2574 23.804Z" fill="#00B37E"/>
<path d="M22.1072 9.44569L18.2576 23.8038L7.54102 13.0872L21.8991 9.2376C22.0292 9.19859 22.1462 9.31564 22.1072 9.44569Z" fill="#00B37E"/>
</svg>
