<svg width="49" height="49" viewBox="0 0 49 49" fill="none" xmlns="http://www.w3.org/2000/svg">
  <path fill-rule="evenodd" clip-rule="evenodd" d="M29.0122 20.0081V23.0074C29.0122 23.3935 29.2344 23.7452 29.5832 23.9109C29.9319 24.0767 30.3449 24.0269 30.6443 23.7831L35.2801 20.0081H40.0168C42.2268 20.0081 44.0184 18.2165 44.0184 16.0065V8.00313C44.0184 5.79307 42.2268 4.00146 40.0168 4.00146H26.0109C23.8009 4.00146 22.0093 5.79307 22.0093 8.00313V16.0065C22.0093 18.2165 23.8009 20.0081 26.0109 20.0081H29.0122Z" stroke="white" stroke-width="3" stroke-linecap="round" stroke-linejoin="round"/>
  <path d="M38.0159 34.0142V26.0109M6.00244 34.0144V14.0061C6.00215 12.9447 6.42366 11.9267 7.17418 11.1761C7.9247 10.4256 8.94271 10.0041 10.0041 10.0044H16.0066" stroke="url(#paint0_linear_8592_32185)" stroke-width="3" stroke-linecap="round" stroke-linejoin="round"/>
  <path fill-rule="evenodd" clip-rule="evenodd" d="M38.0158 34.0142H31.0829C30.414 34.0141 29.7894 34.3482 29.4182 34.9045L28.6058 36.123C28.2346 36.6794 27.61 37.0135 26.9411 37.0134H17.077C16.4082 37.0135 15.7835 36.6794 15.4123 36.123L14.6 34.9045C14.228 34.348 13.6027 34.014 12.9333 34.0142H6.00242C4.89756 34.0146 4.00198 34.9101 4.00159 36.015V38.0158C4.00159 39.0772 4.4228 40.0952 5.17333 40.8458C5.92385 41.5963 6.94186 42.0178 8.00325 42.0175H36.0149C37.0763 42.0178 38.0943 41.5963 38.8448 40.8458C39.5954 40.0952 40.0166 39.0772 40.0166 38.0158V36.015C40.0162 34.9101 39.1206 34.0146 38.0158 34.0142V34.0142Z" stroke="url(#paint1_linear_8592_32185)" stroke-width="3" stroke-linecap="round" stroke-linejoin="round"/>
  <defs>
    <linearGradient id="paint0_linear_8592_32185" x1="22.0092" y1="10.0044" x2="22.0092" y2="34.0144" gradientUnits="userSpaceOnUse">
      <stop stop-color="#8257E5"/>
      <stop offset="1" stop-color="#2B2146"/>
    </linearGradient>
    <linearGradient id="paint1_linear_8592_32185" x1="39.9717" y1="41.9204" x2="39.9717" y2="34.0241" gradientUnits="userSpaceOnUse">
      <stop stop-color="#04D361" stop-opacity="0.25"/>
      <stop offset="1" stop-color="#04D361"/>
    </linearGradient>
  </defs>
</svg>
