<svg width="80" height="80" viewBox="0 0 80 80" fill="none" xmlns="http://www.w3.org/2000/svg"><path d="M66.6668 33.3333V41.6666C66.6668 44.4281 64.4282 46.6666 61.6668 46.6666H18.3334C15.572 46.6666 13.3334 44.4281 13.3334 41.6666V16.6667C13.3334 12.9848 16.3182 10 20.0001 10H30.0001" stroke="url(#paint0_linear)" stroke-width="4" stroke-linecap="round" stroke-linejoin="round"></path><path fill-rule="evenodd" clip-rule="evenodd" d="M63.3303 70.0003H16.6699C14.5783 70.0003 12.608 69.0186 11.3484 67.3488C10.0888 65.679 9.68602 63.5148 10.2605 61.5037L13.8082 49.0847C14.2171 47.6536 15.5251 46.667 17.0134 46.667H62.9868C64.4751 46.667 65.7831 47.6537 66.1919 49.0847L69.7397 61.5037C70.3142 63.5148 69.9114 65.679 68.6518 67.3488C67.3922 69.0186 65.4219 70.0003 63.3303 70.0003Z" stroke="url(#paint1_linear)" stroke-width="4" stroke-linecap="round" stroke-linejoin="round"></path><path d="M33.3334 60.0007H46.6667" stroke="#E1E1E6" stroke-width="4" stroke-linecap="square" stroke-linejoin="round"></path><path d="M50 23.3333L43.3334 16.6667L50 10" stroke="#E1E1E6" stroke-width="4" stroke-linecap="square" stroke-linejoin="round"></path><path d="M60 10L66.6667 16.6667L60 23.3333" stroke="#E1E1E6" stroke-width="4" stroke-linecap="square" stroke-linejoin="round"></path><defs><linearGradient id="paint0_linear" x1="40.0001" y1="10" x2="40.0001" y2="46.6666" gradientUnits="userSpaceOnUse"><stop stop-color="#8257E5"></stop><stop offset="1" stop-color="#8257E5" stop-opacity="0.25"></stop></linearGradient><linearGradient id="paint1_linear" x1="65" y1="70.0003" x2="65" y2="45" gradientUnits="userSpaceOnUse"><stop stop-color="#04D361"></stop><stop offset="1" stop-color="#04D361" stop-opacity="0.25"></stop></linearGradient></defs></svg>