<svg width="90" height="24" viewBox="0 0 90 24" fill="none" xmlns="http://www.w3.org/2000/svg">
<path fill-rule="evenodd" clip-rule="evenodd" d="M11.5154 12.5658V8.40625L0.0238141 12.6822H0V16.9502H0.0238141L11.5154 21.2235V17.0587L5.62542 14.807L11.5154 12.5684V12.5658Z" fill="#8257E6"/>
<path fill-rule="evenodd" clip-rule="evenodd" d="M78.086 21.0074V16.8479L83.9734 14.6093L78.086 12.3708V8.21127L89.5618 12.4819H89.5909V16.7526H89.5618L78.086 21.0021V21.0074ZM73.1565 2.33447L66.4065 24H70.4126L77.1625 2.33447H73.1565Z" fill="#8257E6"/>
<path fill-rule="evenodd" clip-rule="evenodd" d="M28.402 7.62339C29.5425 8.8776 30.1431 10.5287 30.0717 12.2222V21.4515H26.0656V13.0715C26.1132 12.1375 25.8142 11.2193 25.2295 10.4917C24.6738 9.8434 23.8509 9.48619 22.9989 9.52323C20.4905 9.52323 19.2336 11.2643 19.2336 14.7438V21.4515H15.2275V6.30039H19.2336V7.66838C20.5063 6.43269 22.2315 5.77383 24.0044 5.84792C25.6581 5.77913 27.2616 6.42475 28.4047 7.62075L28.402 7.62339Z" fill="white"/>
<path fill-rule="evenodd" clip-rule="evenodd" d="M35.1733 0V21.6656H39.1794V0H35.1733Z" fill="white"/>
<path fill-rule="evenodd" clip-rule="evenodd" d="M61.8296 20.8719H58.4851L55.2067 11.9469L51.8991 20.8719H48.5599L42.9424 5.69434H47.2236L50.3803 14.7702L53.6323 5.69434H56.7599L60.0118 14.8019L63.1685 5.69434H67.4498L61.827 20.8719H61.8296Z" fill="white"/>
</svg>
