<svg width="28" height="36" viewBox="0 0 28 36" fill="none" xmlns="http://www.w3.org/2000/svg">
<path d="M27.4801 1.64124L22.994 0.988503C22.8559 0.967531 22.7178 1.02258 22.6753 1.0619L20.7603 3.51818C20.6301 3.68333 20.5983 3.88255 20.6434 4.06343C20.6886 4.24431 20.5319 4.40946 20.3459 4.36752L18.7709 4.02411C18.5212 3.96906 18.261 4.06343 18.1042 4.26266L11.9024 12.1584C11.7855 12.3078 11.5784 12.3602 11.4031 12.2816L9.04449 11.2225C8.83732 11.1308 8.59562 11.1518 8.40704 11.2802L7.21979 12.0955C7.02324 12.2318 6.7656 12.2475 6.55312 12.14L5.95817 11.8412C5.58366 11.6525 5.12682 11.8622 5.03386 12.2685L4.60358 14.1297C4.50265 14.5649 4.69389 15.0157 5.07902 15.2517L5.9741 15.7943L8.87716 17.5585L10.2955 18.4183C10.6859 18.6569 11.1906 18.615 11.5359 18.3135L13.8997 16.2635C14.0936 16.0958 14.3699 16.0617 14.5983 16.177L15.3101 16.5335C15.5518 16.6541 15.844 16.6148 16.0405 16.4313L17.241 15.3251C17.4296 15.1494 17.7085 15.1049 17.9449 15.2123L19.7297 16.0145C20.0007 16.1351 20.322 16.0591 20.5027 15.8258L21.326 14.7798L27.5651 6.87884C27.8572 6.5066 27.658 5.96134 27.1932 5.86173L25.8015 5.55764C25.5119 5.49473 25.3898 5.15132 25.5757 4.92326L27.7351 2.28611C27.9316 2.04756 27.7882 1.68842 27.4801 1.64386V1.64124Z" fill="#8257E5"/>
<path d="M6.89597 17.5295C6.77113 17.4509 6.61708 17.5741 6.6702 17.7104L7.34218 19.451C7.38999 19.5742 7.39796 19.7079 7.36343 19.8337L6.7791 22.096C6.74191 22.2428 6.79504 22.3975 6.91721 22.4918L8.58786 23.7737C8.73926 23.8891 8.95174 23.8838 9.09782 23.7606L10.8561 22.2454C10.9571 22.1589 11.0819 22.1039 11.2147 22.0908L13.1961 21.8706C13.3395 21.8548 13.382 21.6713 13.2625 21.5953L6.89597 17.5321V17.5295Z" fill="#8257E5"/>
<path d="M6.29568 23.3437C6.18147 23.252 6.02476 23.2362 5.89462 23.2991L4.48691 23.9729C4.40723 24.0122 4.34349 24.0803 4.31162 24.1616L1.31029 31.4727C1.30232 31.4885 1.30232 31.5094 1.31029 31.5278C1.32357 31.5671 1.36606 31.5881 1.40325 31.5724L2.0832 31.3155C2.10444 31.3076 2.131 31.305 2.1496 31.3181C2.18413 31.3391 2.19475 31.3862 2.1735 31.4203L0.0114827 34.9042C-0.03367 34.9776 0.0646036 35.0562 0.128349 34.9933L7.89993 27.2863C7.97164 27.2208 8.0168 27.129 8.02476 27.0321L8.1735 25.0476C8.18147 24.9271 8.13101 24.8117 8.03539 24.7357L6.29568 23.3463V23.3437Z" fill="#8257E5"/>
</svg>
